<svg xmlns="http://www.w3.org/2000/svg" xmlns:xlink="http://www.w3.org/1999/xlink"><defs>
        <clipPath id="clip0">
            <path d="M0 0h35v35H0z"/>
        </clipPath>
    
        <clipPath id="clip0">
            <path transform="translate(4.74 7.059)" d="M0 0h26.286v26.286H0z"/>
        </clipPath>
    
        <clipPath id="clip0">
            <path d="M0 0h40v40H0z"/>
        </clipPath>
    
        <clipPath id="clip0">
            <path d="M0 0h40v40H0z"/>
        </clipPath>
    </defs><symbol id="arr-left">
    <path d="M19 21.421c0-.154-.1-.301-.277-.41L2.293 10.996 18.722.982c.364-.23.354-.597-.024-.82-.368-.216-.952-.216-1.32 0L.28 10.588c-.372.226-.372.593 0 .82l17.1 10.424c.372.226.973.225 1.344-.001.177-.109.277-.256.277-.409z"/>
    <path d="M1 11.5h55"/>
</symbol><symbol id="arr-right">
    <path d="M37 .579c0 .154.1.301.278.41l16.43 10.015-16.43 10.014c-.365.23-.355.597.023.82.368.216.952.216 1.32 0l17.1-10.425c.372-.226.372-.593 0-.82L38.622.17c-.372-.226-.974-.225-1.344.001C37.1.28 37 .426 37 .58z"/>
    <path d="M0 10.5h55"/>
</symbol><symbol id="hamburger-mob">
    <path d="M41 20H0v4h41v-4zm0-10H0v4h41v-4zm0-10H0v4h41V0z" fill-opacity=".8"/>
</symbol><symbol id="hamburger">
    <path d="M14.453 9.166H0V11h14.453V9.166zm0-4.583H0v1.833h14.453V4.583zm0-4.583H0v1.833h14.453V0z"/>
</symbol><symbol id="insta">
    <path d="M29.172 0H10.828C4.858 0 0 4.857 0 10.828v18.345C0 35.143 4.857 40 10.828 40h18.345C35.143 40 40 35.143 40 29.173V10.828C40 4.858 35.143 0 29.172 0zm8.483 29.173c0 4.677-3.805 8.482-8.483 8.482H10.828c-4.678 0-8.483-3.805-8.483-8.482V10.828c0-4.678 3.805-8.483 8.483-8.483h18.345c4.677 0 8.482 3.805 8.482 8.483v18.345z"/>
    <path d="M20 9.063C13.97 9.063 9.063 13.969 9.063 20c0 6.03 4.906 10.937 10.937 10.937 6.03 0 10.937-4.906 10.937-10.937 0-6.03-4.906-10.937-10.937-10.937zm0 19.53c-4.738 0-8.592-3.855-8.592-8.593 0-4.738 3.854-8.592 8.592-8.592s8.592 3.854 8.592 8.592-3.854 8.592-8.592 8.592zM31.199 5.179a3.235 3.235 0 00-3.232 3.232 3.235 3.235 0 003.232 3.232A3.236 3.236 0 0034.43 8.41a3.235 3.235 0 00-3.232-3.232zm0 4.118a.888.888 0 010-1.773.888.888 0 010 1.773z"/>
</symbol><symbol id="menu-close">
    <path d="M22.622.377a1.145 1.145 0 00-1.62 0L11.5 9.88 1.997.377a1.145 1.145 0 10-1.62 1.62L9.88 11.5.377 21.002a1.145 1.145 0 101.62 1.62L11.5 13.12l9.502 9.502a1.142 1.142 0 001.62 0 1.145 1.145 0 000-1.62L13.12 11.5l9.502-9.502a1.146 1.146 0 000-1.62z"/>
</symbol><symbol id="record">
    <path d="M49.111 17.518c0 .114.075.222.21.303l12.414 7.382-12.414 7.383c-.276.17-.268.44.017.604.278.16.72.16.998 0l12.92-7.685c.28-.167.28-.437 0-.604l-12.92-7.685c-.281-.166-.736-.166-1.016.001-.134.08-.209.188-.209.301z"/>
    <path d="M.756 25.2c0 .408.578.738 1.29.738H61.42c.713 0 1.291-.33 1.291-.737s-.578-.737-1.29-.737H2.045c-.712 0-1.29.33-1.29.737z"/>
    <path transform="scale(1.00858 .99135) rotate(45 29.417 73.468)" stroke-width="2" d="M0 1.402h32.969v32.969H0z"/>
</symbol><symbol id="tel">
    <g clip-path="url(#clip0)">
        <path d="M33.423 25.495l-5.19-4.413a.697.697 0 00-.076-.056 3.397 3.397 0 00-4.251.466l-2.83 2.83a.682.682 0 01-.745.148c-3.195-1.322-5.82-3.311-7.801-5.914-1.511-1.984-2.056-3.56-2.128-3.783a.685.685 0 00-.041-.14.68.68 0 01.148-.745l2.83-2.83a3.397 3.397 0 00.444-4.284l-3.748-5.208A3.418 3.418 0 004.745 1l-.566.567-.001.001-2.023 2.023C-.257 6.005-.652 9.63 1.014 14.076c1.427 3.81 4.284 7.978 8.044 11.738 3.849 3.849 8.13 6.758 12.055 8.193 3.884 1.419 8.017 1.594 10.941-1.331l1.908-1.908a3.418 3.418 0 00-.539-5.273zm-6.037-3.34l5.185 4.41c.024.02.05.04.076.056a2.051 2.051 0 01.349 3.18l-.142.142-8.844-6.622.862-.862a2.038 2.038 0 012.514-.303zM8.893 2.318l.022.032 3.746 5.207a2.038 2.038 0 01-.29 2.535l-.835.836-5.984-8.799.16-.16a2.051 2.051 0 013.181.349zm12.689 30.405c-3.742-1.367-7.847-4.164-11.558-7.875-3.625-3.625-6.37-7.62-7.73-11.25-1.021-2.725-1.706-6.505.828-9.038l1.446-1.447 5.984 8.8-1.01 1.009a2.043 2.043 0 00-.468 2.176c.216.886 1.21 2.724 2.21 4.078 1.475 1.993 4.15 4.749 8.525 6.559a2.045 2.045 0 002.234-.445l.99-.991 8.844 6.622-.79.79c-2.715 2.715-6.668 2.05-9.505 1.012z"/>
    </g>
    
</symbol><symbol id="tg">
    <path d="M29.172 0H10.828C4.858 0 0 4.857 0 10.828v18.345C0 35.143 4.857 40 10.828 40h18.345C35.143 40 40 35.143 40 29.173V10.828C40 4.858 35.143 0 29.172 0zm8.483 29.173c0 4.677-3.805 8.482-8.483 8.482H10.828c-4.678 0-8.483-3.805-8.483-8.482V10.828c0-4.678 3.805-8.483 8.483-8.483h18.345c4.677 0 8.482 3.805 8.482 8.483v18.345z"/>
    <g clip-path="url(#clip0)">
        <path d="M30.83 8.112a.771.771 0 00-.884-.193L5.201 18.752a.77.77 0 00-.031 1.396l5.909 2.906 1.472 8.833a.77.77 0 001.315.428l4.664-4.665 6.657 4.755a.771.771 0 001.203-.476l4.62-23.153a.768.768 0 00-.18-.664zM11.688 21.637l-4.35-2.14 17.189-7.524-12.839 9.664zm2.41 2.29l-.716 3.58-.773-4.635 9.445-7.11-7.746 7.772a.782.782 0 00-.21.393zm.469 5.508l.808-4.038 1.885 1.346-2.693 2.692zm10.546 1.024l-9.074-6.48 12.962-13.005-3.889 19.485z"/>
    </g>
    
</symbol><symbol id="up">
    <path d="M39.391 31a.622.622 0 01-.43-.17L25.995 18.408 13.032 30.83a.628.628 0 01-.861-.015.566.566 0 010-.81L25.566 17.17a.628.628 0 01.861 0l13.395 12.834a.566.566 0 01-.001.825.623.623 0 01-.43.17z"/>
    <circle cx="25.5" cy="25.5" r="25"/>
</symbol><symbol id="viber">
    <g clip-path="url(#clip0)">
        <path d="M38.592 23.155c1.193-10.045-.574-16.387-3.76-19.255l.001-.002C29.69-1 12.32-1.725 6.167 4.118 3.403 6.977 2.43 11.172 2.323 16.365c-.106 5.195-.233 14.927 8.835 17.567h.009l-.009 4.031s-.061 1.634.982 1.962c1.193.387 1.733-.372 5.445-4.805 6.207.538 10.973-.695 11.515-.875 1.253-.42 8.345-1.358 9.492-11.09zm-20.395 9.128s-3.929 4.899-5.15 6.17c-.4.414-.839.375-.832-.445 0-.538.03-6.693.03-6.693-7.688-2.203-7.235-10.49-7.152-14.825.084-4.337.877-7.888 3.217-10.28 5.398-5.062 20.627-3.93 24.507-.283 4.743 4.205 3.055 16.085 3.065 16.49-.975 8.123-6.722 8.638-7.779 8.99-.451.15-4.643 1.228-9.906.876z"/>
        <path d="M20.37 7.162c-.642 0-.642 1 0 1.008 4.978.038 9.078 3.508 9.123 9.873 0 .672.984.664.975-.008h-.001C30.413 11.177 25.937 7.2 20.37 7.162z"/>
        <path d="M26.918 16.988c-.015.664.967.695.975.024.082-3.782-2.25-6.897-6.631-7.225-.642-.047-.709.961-.069 1.008 3.8.288 5.802 2.882 5.725 6.193zm-1.05 4.302c-.823-.477-1.661-.18-2.008.288l-.725.939c-.368.476-1.057.413-1.057.413-5.023-1.328-6.366-6.585-6.366-6.585s-.062-.712.398-1.093l.907-.75c.453-.36.74-1.227.278-2.079-1.233-2.228-2.062-2.996-2.483-3.586-.444-.555-1.11-.68-1.804-.305h-.015c-1.441.843-3.02 2.421-2.515 4.046.862 1.714 2.445 7.175 7.492 11.302 2.372 1.952 6.125 3.952 7.718 4.413l.015.024c1.57.523 3.097-1.117 3.912-2.602v-.012c.362-.718.242-1.398-.287-1.843-.936-.913-2.35-1.922-3.46-2.57z"/>
        <path d="M21.948 13.507c1.602.093 2.379.93 2.462 2.648.03.672 1.005.625.975-.047-.107-2.243-1.277-3.493-3.383-3.61-.642-.038-.702.97-.054 1.009z"/>
    </g>
    
</symbol><symbol id="whatsapp">
    <g clip-path="url(#clip0)">
        <path d="M34.319 5.681A19.27 19.27 0 0020.602 0H20.6c-2.562 0-5.06.497-7.422 1.475a19.302 19.302 0 00-6.292 4.206 19.27 19.27 0 00-5.681 13.717c0 3.09.745 6.16 2.158 8.896L.103 37.61a1.782 1.782 0 00.425 1.863 1.782 1.782 0 001.863.425l9.315-3.26a19.456 19.456 0 008.896 2.158 19.272 19.272 0 0013.716-5.681A19.27 19.27 0 0040 19.398 19.27 19.27 0 0034.319 5.68zm-1.66 25.774a16.939 16.939 0 01-12.057 4.994c-2.786 0-5.554-.689-8.004-1.993a1.807 1.807 0 00-1.441-.112l-8.463 2.962 2.962-8.463a1.807 1.807 0 00-.112-1.441 17.095 17.095 0 01-1.993-8.004A16.94 16.94 0 018.545 7.34 16.942 16.942 0 0120.6 2.346h.001c4.555 0 8.837 1.774 12.058 4.994a16.938 16.938 0 014.994 12.058 16.94 16.94 0 01-4.995 12.057z"/>
        <path d="M27.811 21.13a2.291 2.291 0 00-3.236 0l-.976.976a14.206 14.206 0 01-5.706-5.705l.976-.976a2.29 2.29 0 000-3.236l-2.63-2.63a2.291 2.291 0 00-3.236 0l-2.104 2.104c-1.205 1.205-1.266 3.277-.17 5.834.952 2.22 2.693 4.66 4.904 6.87 2.21 2.21 4.65 3.952 6.87 4.904 1.215.52 2.32.78 3.275.78 1.055 0 1.927-.317 2.56-.95l2.103-2.104a2.27 2.27 0 00.67-1.618c0-.612-.237-1.186-.67-1.618l-2.63-2.63zm-1.133 6.312c-.344.344-1.401.465-3.25-.328-1.953-.836-4.132-2.401-6.136-4.406-2.005-2.004-3.57-4.183-4.406-6.135-.793-1.85-.672-2.908-.328-3.252l2.063-2.063 2.55 2.549-1.223 1.222a1.79 1.79 0 00-.33 2.085 16.55 16.55 0 007.268 7.269 1.79 1.79 0 002.085-.332l1.222-1.221 2.55 2.549-2.064 2.063z"/>
    </g>
    
</symbol></svg>