<svg xmlns="http://www.w3.org/2000/svg" xmlns:xlink="http://www.w3.org/1999/xlink"><symbol id="arr-left">
    <path d="M19 21.421c0-.154-.1-.301-.277-.41L2.293 10.996 18.722.982c.364-.23.354-.597-.024-.82-.368-.216-.952-.216-1.32 0L.28 10.588c-.372.226-.372.593 0 .82l17.1 10.424c.372.226.973.225 1.344-.001.177-.109.277-.256.277-.409z"/>
    <path d="M1 11.5h55"/>
</symbol><symbol id="arr-right">
    <path d="M37 .579c0 .154.1.301.278.41l16.43 10.015-16.43 10.014c-.365.23-.355.597.023.82.368.216.952.216 1.32 0l17.1-10.425c.372-.226.372-.593 0-.82L38.622.17c-.372-.226-.974-.225-1.344.001C37.1.28 37 .426 37 .58z"/>
    <path d="M0 10.5h55"/>
</symbol><symbol id="hamburger-mob">
    <path d="M41 20H0v4h41v-4zm0-10H0v4h41v-4zm0-10H0v4h41V0z" fill-opacity=".8"/>
</symbol><symbol id="hamburger">
    <path d="M14.453 9.166H0V11h14.453V9.166zm0-4.583H0v1.833h14.453V4.583zm0-4.583H0v1.833h14.453V0z"/>
</symbol><symbol id="menu-close">
    <path d="M22.622.377a1.145 1.145 0 00-1.62 0L11.5 9.88 1.997.377a1.145 1.145 0 10-1.62 1.62L9.88 11.5.377 21.002a1.145 1.145 0 101.62 1.62L11.5 13.12l9.502 9.502a1.142 1.142 0 001.62 0 1.145 1.145 0 000-1.62L13.12 11.5l9.502-9.502a1.146 1.146 0 000-1.62z"/>
</symbol><symbol id="record">
    <path d="M49.111 17.518c0 .114.075.222.21.303l12.414 7.382-12.414 7.383c-.276.17-.268.44.017.604.278.16.72.16.998 0l12.92-7.685c.28-.167.28-.437 0-.604l-12.92-7.685c-.281-.166-.736-.166-1.016.001-.134.08-.209.188-.209.301z"/>
    <path d="M.756 25.2c0 .408.578.738 1.29.738H61.42c.713 0 1.291-.33 1.291-.737s-.578-.737-1.29-.737H2.045c-.712 0-1.29.33-1.29.737z"/>
    <path transform="scale(1.00858 .99135) rotate(45 29.417 73.468)" stroke-width="2" d="M0 1.402h32.969v32.969H0z"/>
</symbol></svg>