<svg width="107" height="64" fill="none" xmlns="http://www.w3.org/2000/svg"><path d="M66 19.658c0 .175.115.342.321.466l19.025 11.38-19.025 11.38c-.422.262-.41.679.027.931.427.247 1.102.247 1.529 0l19.8-11.846c.43-.257.43-.674 0-.93l-19.8-11.847c-.43-.257-1.127-.256-1.556.002-.206.123-.321.29-.321.464z" fill="#AF7C38"/><path stroke="#AF7C38" d="M0 30.5h87"/><path transform="matrix(-.74606 .66588 -.7503 -.6611 104.861 32.736)" stroke="#454547" stroke-opacity=".8" d="M-.748.002h46.705v46.705H-.748z"/><path transform="matrix(-.74606 .66588 -.7503 -.6611 104.861 32.736)" stroke="#AF7C38" d="M-.748.002h46.705v46.705H-.748z"/></svg>