<svg width="49" height="49" fill="none" xmlns="http://www.w3.org/2000/svg"><circle cx="22.5" cy="22.5" r="22.5" fill="#BBA040" fill-opacity=".8"/><path d="M48.983 35.557a.651.651 0 00-.031-.138c-.004-.008 0-.018-.006-.026l-5.881-13.066 5.22-12.4A.667.667 0 0047.672 9H15.004c-.268 0-.51.16-.614.408L9.056 22.075v.01a.654.654 0 00-.032.162.641.641 0 00-.02.094c.004.034.01.067.02.1a.631.631 0 00.035.154v.012l5.879 13.053L9.07 48.048a.667.667 0 00.6.952h32.667a.668.668 0 00.6-.382l6-12.666c.004-.008 0-.017.006-.025a.65.65 0 00.034-.14.613.613 0 00.02-.114.636.636 0 00-.015-.116zm-7.067 12.11H10.724l5.547-11.715c.004-.008 0-.017.006-.025a.656.656 0 00.035-.14.613.613 0 00.019-.114.64.64 0 00-.017-.116.645.645 0 00-.032-.138c0-.008 0-.018-.006-.026l-5.88-13.066 5.051-11.994h31.22l-4.944 11.742v.01a.654.654 0 00-.033.162.665.665 0 00-.016.094c.004.034.01.067.02.1a.63.63 0 00.035.154v.012l5.875 13.053-5.688 12.007z" fill="#fff"/><path d="M39.67 23a.667.667 0 100-1.333h-2.28l3.97-8.382a.667.667 0 00-.603-.951H19.423a.667.667 0 00-.6.38l-2.22 4.679-.012.024-2.01 4.25h-2.244a.667.667 0 100 1.333h2.235l2.223 4.94a.667.667 0 001.216-.547l-.474-1.06h8.383a.655.655 0 00.27-.06.08.08 0 00.012 0 .548.548 0 00.074-.056.412.412 0 00.192-.194.6.6 0 00.067-.113.649.649 0 00.029-.144.66.66 0 00.02-.1v-.012a.668.668 0 00-.027-.134.701.701 0 00-.032-.126v-.014L25.391 23h10.514l3.898 8.667H33.67a.667.667 0 100 1.333h6.733l.9 2H30.76l-1.4-2.953a.63.63 0 00-.06-.078.676.676 0 00-.088-.118 2.429 2.429 0 00-.216-.134.682.682 0 00-.133-.026.615.615 0 00-.105-.024h-8.82l-.424-.94a.667.667 0 00-1.216.546L19.972 35h-1.635a.667.667 0 000 1.333h1.613l-3.97 8.382a.667.667 0 00.603.952h21.334a.667.667 0 00.6-.382l4.242-8.951h2.911a.667.667 0 100-1.334h-2.902l-5.4-12h2.302zM28.337 33l.948 2h-7.85l-.898-2h7.8zm-10.7 11.334l3.788-8h7.858l-3.788 8h-7.858zm19.855 0h-3.435l1.546-3.272a.667.667 0 00-1.205-.57l-1.817 3.842h-5.61l3.788-8h10.524l-3.791 8zM16.937 25l-.9-2h7.88l.946 2h-7.926zm-.88-3.333l1.578-3.334h6.702a.667.667 0 100-1.333H18.27l1.579-3.333H33.95l-1.547 3.271a.667.667 0 001.203.573l1.82-3.844h4.277l-3.788 8H16.057z" fill="#fff"/></svg>