<svg width="51" height="49" fill="none" xmlns="http://www.w3.org/2000/svg"><circle cx="22.5" cy="22.5" r="22.5" fill="#BBA040" fill-opacity=".8"/><path d="M21.756 16.93h-4.739a.737.737 0 100 1.475h4.74a.737.737 0 000-1.474zm0 6.361h-4.739a.737.737 0 100 1.474h4.74a.737.737 0 000-1.474zm0 6.384h-4.739a.737.737 0 100 1.474h4.74a.737.737 0 000-1.474zm0 6.419h-4.739a.737.737 0 100 1.474h4.74a.737.737 0 000-1.474zm11.24-16.562l-4.311-1.975a.737.737 0 10-.612 1.341l4.312 1.976a.737.737 0 10.611-1.342z" fill="#fff"/><path d="M47.664 21.235l-2.41-2.83a4.607 4.607 0 00-3.066-1.68 4.341 4.341 0 00-3.192 1.208l-1.673 1.474.641-1.393c.951-2.086.383-3.53-.265-4.378a4.966 4.966 0 00-1.91-1.474l-3.345-1.577c-1.939-.885-4.496-.782-5.853 2.21l-.936 2.043v-1.416c0-3.258-2.277-4.422-4.422-4.422h-3.685c-2.138 0-4.422 1.157-4.422 4.422v31.156c0 3.258 2.277 4.422 4.422 4.422h3.685c2.403 0 3.685-1.238 4.157-2.75l21.817-18.824a4.35 4.35 0 001.666-2.948 4.6 4.6 0 00-1.21-3.243zM24.18 44.578c0 1.098-.383 2.948-2.948 2.948h-3.685c-1.098 0-2.948-.383-2.948-2.948V13.422c0-2.557 1.842-2.948 2.948-2.948h3.685c1.098 0 2.948.383 2.948 2.948v31.156zm3.516-13.466l-2.042-.914v-5.38l4.069 1.857a.737.737 0 10.612-1.342l-4.312-1.968a.737.737 0 00-.369-.051v-4.96l2.278-4.961c1.061-2.33 2.897-1.91 3.899-1.474l3.368 1.54a3.5 3.5 0 011.35 1.032c.599.851.637 1.978.095 2.867l-7.282 15.92-3.686 8.108v-9.582l1.408.65a.737.737 0 10.612-1.342zm18.552-4.806l-19.945 17.21 3.929-8.586 1.017 1.164a.737.737 0 101.098-.98L30.874 33.5l2.27-4.953 2.904 3.368a.753.753 0 001.142-.98l-3.11-3.604a.736.736 0 00-.295-.2l2.079-4.54 4.112-3.545a2.949 2.949 0 012.116-.855 3.11 3.11 0 012.027 1.165l2.417 2.808c.557.601.862 1.392.855 2.211a2.949 2.949 0 01-1.142 1.931z" fill="#fff"/><path d="M42.026 26.748L38.93 23.16a.737.737 0 00-1.113.966l3.096 3.589a.737.737 0 001.113-.966zM19.39 40.672a2.565 2.565 0 100 5.13 2.565 2.565 0 000-5.13zm0 3.656v.03a1.09 1.09 0 111.091-1.092 1.091 1.091 0 01-1.09 1.062z" fill="#fff"/></svg>