<svg width="50" height="51" fill="none" xmlns="http://www.w3.org/2000/svg"><circle cx="22.5" cy="22.5" r="22.5" fill="#BBA040" fill-opacity=".8"/><g clip-path="url(#clip0)" fill="#fff"><path d="M27.534 15.7c-6.369 0-11.572 5.203-11.572 11.572 0 3.33 1.457 6.535 3.913 8.7 1.831 1.832 1.665 5.745 1.623 5.786 0 .209.042.375.208.542a.768.768 0 00.5.208H32.82a.69.69 0 00.5-.208.791.791 0 00.208-.542c0-.041-.208-3.954 1.623-5.786l.125-.125c2.414-2.206 3.83-5.328 3.83-8.575 0-6.37-5.204-11.573-11.573-11.573zm6.66 19.19c-.04.041-.124.125-.124.166-1.624 1.749-1.915 4.621-1.957 5.995h-9.2c-.041-1.374-.332-4.371-2.08-6.161a10.146 10.146 0 01-3.498-7.66c0-5.62 4.538-10.157 10.158-10.157 5.62 0 10.157 4.537 10.157 10.157 0 2.956-1.249 5.745-3.455 7.66z"/><path d="M27.493 18.655a.73.73 0 00-.708.707.73.73 0 00.708.708c4.204 0 7.576 3.414 7.576 7.576a.73.73 0 00.708.708.73.73 0 00.707-.708c.042-4.953-3.996-8.991-8.991-8.991zm4.62 24.644h-9.241c-.957 0-1.748.79-1.748 1.748s.79 1.749 1.748 1.749h9.2c.999-.042 1.79-.791 1.79-1.749a1.76 1.76 0 00-1.749-1.748zm0 2.04h-9.241a.328.328 0 01-.333-.333c0-.209.125-.333.333-.333h9.2c.166 0 .333.124.333.333 0 .208-.125.333-.292.333zm-1.373 2.164h-6.494a1.76 1.76 0 00-1.749 1.749A1.76 1.76 0 0024.246 51h6.494c.957 0 1.748-.79 1.748-1.748 0-1-.79-1.749-1.748-1.749zm0 2.04h-6.494a.328.328 0 01-.333-.333c0-.208.125-.333.333-.333h6.494c.166 0 .333.125.333.333a.328.328 0 01-.333.333zm-3.247-37.299a.702.702 0 00.707-.707v-4.83A.73.73 0 0027.493 6a.73.73 0 00-.708.708v4.829a.73.73 0 00.708.707zm11.78-2.664c-.333-.25-.749-.125-.957.166l-2.664 3.996a.686.686 0 00.166 1c.125.083.25.124.375.124.25 0 .458-.124.583-.332l2.664-3.997c.25-.291.166-.75-.167-.957zM19.042 14.7c.125 0 .25-.041.375-.125.333-.208.416-.666.208-.999l-2.581-4.038c-.208-.333-.666-.416-1-.208-.332.208-.415.666-.207 1l2.58 4.037a.69.69 0 00.625.333zm-5.037 4.413l-4.204-2.29c-.333-.167-.791-.042-.958.291a.665.665 0 00.292.958l4.204 2.29c.125.041.208.083.333.083.25 0 .5-.125.624-.375.167-.333.042-.791-.29-.957zm32.179-1.999c-.167-.333-.625-.458-.958-.291l-4.246 2.29c-.333.166-.458.624-.291.957.125.25.374.375.624.375.125 0 .25-.042.333-.084l4.246-2.29c.333-.166.458-.624.292-.957z"/></g><defs><clipPath id="clip0"><path fill="#fff" transform="translate(5 6)" d="M0 0h45v45H0z"/></clipPath></defs></svg>