<svg width="49" height="46" fill="none" xmlns="http://www.w3.org/2000/svg"><circle cx="22.5" cy="22.5" r="22.5" fill="#BBA040" fill-opacity=".8"/><g clip-path="url(#clip0)" fill="#fff"><path d="M34.162 33.641a.66.66 0 00-.659-.659H14.607a.22.22 0 01-.22-.22v-3.736c0-2.408.705-4.735 2.038-6.727a.66.66 0 10-1.096-.733 13.369 13.369 0 00-2.26 7.46v3.737c0 .848.69 1.538 1.537 1.538H21.2a5.412 5.412 0 005.301 4.261 5.412 5.412 0 005.3-4.261h1.703a.66.66 0 00.66-.66zM26.5 37.244a4.098 4.098 0 01-3.942-2.943h7.884a4.098 4.098 0 01-3.942 2.943zm9.034-18.158a13.402 13.402 0 00-5.222-2.94V14.42a2.28 2.28 0 00-2.278-2.278h-.875V1.659a.66.66 0 10-1.318 0v10.483h-.875a2.28 2.28 0 00-2.278 2.278v1.725a13.397 13.397 0 00-5.258 2.974.66.66 0 00.89.972c4.624-4.235 11.706-4.23 16.325-.031l.002.001a12.142 12.142 0 013.966 8.965v3.737a.22.22 0 01-.22.22H36.58a.66.66 0 100 1.318h1.815a1.54 1.54 0 001.538-1.538v-3.737c0-3.776-1.603-7.399-4.398-9.94zm-6.54-3.26a13.541 13.541 0 00-4.987 0V14.42c0-.53.43-.96.96-.96h3.067c.529 0 .96.43.96.96v1.406zM26.5 40.723a.66.66 0 00-.66.659v3.959a.66.66 0 001.32 0v-3.96a.66.66 0 00-.66-.658zm7.574-2.434a.66.66 0 10-.932.932l2.796 2.8a.66.66 0 10.933-.932l-2.797-2.8zm-15.148 0l-2.797 2.8a.66.66 0 00.933.931l2.797-2.8a.66.66 0 00-.933-.931z"/></g><defs><clipPath id="clip0"><path fill="#fff" transform="translate(4 1)" d="M0 0h45v45H0z"/></clipPath></defs></svg>