<svg width="50" height="50" fill="none" xmlns="http://www.w3.org/2000/svg"><circle cx="22.5" cy="22.5" r="22.5" fill="#BBA040" fill-opacity=".8"/><path d="M47.77 21.807h-.894v-3.322a3.566 3.566 0 00-3.563-3.563h-12.91a3.56 3.56 0 00-2.903 1.502 3.56 3.56 0 00-2.903-1.502h-8.11a.66.66 0 100 1.319h8.11a2.246 2.246 0 012.244 2.244v6.592l-.043-.038a4.31 4.31 0 00-2.909-1.149H12.91a2.26 2.26 0 00-1.494-1.959 2.189 2.189 0 00-.731-.124H9.443v-3.322a2.246 2.246 0 012.244-2.244h2.162a.66.66 0 100-1.319h-2.162a3.566 3.566 0 00-3.563 3.563v3.322H7.23A2.233 2.233 0 005 24.037v6.883a4.65 4.65 0 004.644 4.645h.332l-.723 1.943c-.455 1.224.482 2.57 1.787 2.57h1.06c.594 0 1.162-.283 1.52-.756l2.842-3.757h22.076l2.842 3.757c.358.473.926.756 1.52.756h1.06c1.306 0 2.242-1.346 1.786-2.57l-.722-1.943h.331A4.65 4.65 0 0050 30.92v-6.882c0-1.23-1-2.23-2.23-2.23zm-19.61-3.322a2.246 2.246 0 012.243-2.244h12.91a2.246 2.246 0 012.244 2.244v3.322h-1.24c-.877 0-1.718.563-2.058 1.37a2.215 2.215 0 00-.168.713H31.11a4.324 4.324 0 00-2.952 1.188v-6.593zm-15.246 6.724h10.975a2.955 2.955 0 012.952 2.951v.938H12.914v-3.89zm-.345 13.317a.59.59 0 01-.469.233h-1.06a.592.592 0 01-.55-.792l.892-2.402h3.427l-2.24 2.961zm31.391.233H42.9a.59.59 0 01-.469-.233l-2.24-2.961h3.427l.893 2.402a.593.593 0 01-.55.792zm1.395-4.513H9.645a3.33 3.33 0 01-3.327-3.326v-6.882c0-.503.41-.912.912-.912h3.454c.503 0 .912.409.912.912v5.719c0 .364.295.659.659.659h24.212a.66.66 0 000-1.319h-8.308v-.937a2.955 2.955 0 012.952-2.951h10.975v3.889h-2.983a.66.66 0 000 1.318h3.642a.66.66 0 00.66-.66v-5.718c0-.503.408-.912.911-.912h3.454c.502 0 .912.409.912.912v6.882a3.33 3.33 0 01-3.327 3.326z" fill="#fff"/></svg>