<svg width="50" height="50" fill="none" xmlns="http://www.w3.org/2000/svg"><g clip-path="url(#clip0)" fill="#fff"><path d="M33.514 36.268a.732.732 0 00-.733-.732H11.785a.245.245 0 01-.244-.244V31.14a13.4 13.4 0 012.264-7.475.732.732 0 00-1.217-.814 14.854 14.854 0 00-2.512 8.289v4.152c0 .942.767 1.709 1.709 1.709h7.325A6.013 6.013 0 0025 41.736a6.014 6.014 0 005.89-4.735h1.891a.732.732 0 00.733-.733zM25 40.271a4.554 4.554 0 01-4.38-3.27h8.76A4.554 4.554 0 0125 40.27zm10.038-20.176h-.001a14.89 14.89 0 00-5.802-3.267v-1.917a2.534 2.534 0 00-2.53-2.531h-.973V.732a.732.732 0 10-1.464 0V12.38h-.972a2.534 2.534 0 00-2.531 2.53v1.918a14.888 14.888 0 00-5.842 3.304.733.733 0 00.99 1.08c5.136-4.705 13.005-4.7 18.137-.035l.002.002a13.491 13.491 0 014.407 9.96v4.153c0 .134-.11.244-.244.244h-2.016a.732.732 0 000 1.465h2.016c.942 0 1.709-.767 1.709-1.71V31.14c0-4.195-1.781-8.22-4.886-11.045zm-7.268-3.622a15.048 15.048 0 00-5.54 0v-1.562c0-.588.478-1.066 1.066-1.066h3.408c.588 0 1.066.478 1.066 1.066v1.562zM25 44.136a.732.732 0 00-.732.733v4.398a.732.732 0 101.464 0V44.87a.732.732 0 00-.732-.733zm8.416-2.704a.732.732 0 10-1.037 1.036l3.108 3.11a.732.732 0 001.036-1.035l-3.107-3.11zm-16.832 0l-3.107 3.11a.733.733 0 001.036 1.036l3.108-3.11a.732.732 0 10-1.037-1.036z"/></g><defs><clipPath id="clip0"><path fill="#fff" d="M0 0h50v50H0z"/></clipPath></defs></svg>