<svg width="50" height="50" fill="none" xmlns="http://www.w3.org/2000/svg"><g clip-path="url(#clip0)" fill="#fff"><path d="M48.695 10.033c.72 0 1.305-.586 1.305-1.305v-2.95c0-.719-.585-1.304-1.305-1.304h-2.95c-.718 0-1.304.585-1.304 1.305v.741H42.02a.733.733 0 100 1.466h2.421v.742c0 .72.585 1.305 1.305 1.305h.742v26.883h-.742c-.72 0-1.305.585-1.305 1.304v1.18h-5.755L32.087 7.986h6.81a.733.733 0 100-1.466h-7.118l-.742-3.536a2.013 2.013 0 00-1.957-1.577h-8.258c-.935 0-1.758.663-1.957 1.582l-.742 3.531H5.559v-.74c0-.72-.585-1.305-1.305-1.305h-2.95A1.305 1.305 0 000 5.779v2.949c0 .72.585 1.305 1.305 1.305h.742v26.882h-.742c-.72 0-1.305.586-1.305 1.305v2.95c0 .72.585 1.304 1.305 1.304h2.95c.719 0 1.304-.585 1.304-1.304v-.305h5.35l-.4 1.907H8.755c-.745 0-1.35.606-1.35 1.351v3.12c0 .744.605 1.35 1.35 1.35h13.292c.745 0 1.351-.606 1.351-1.35v-3.12c0-.745-.606-1.35-1.351-1.35h-1.613l.312-1.908h8.408l.313 1.907h-1.613c-.745 0-1.352.606-1.352 1.351v3.12c0 .744.607 1.35 1.352 1.35h13.291c.745 0 1.351-.606 1.351-1.35v-3.12c0-.745-.606-1.35-1.351-1.35h-1.752l-.4-1.908h5.447v.305c0 .72.586 1.304 1.305 1.304h2.95c.719 0 1.304-.585 1.304-1.304v-2.95c0-.72-.585-1.304-1.305-1.304h-.742V10.033h.742zM20.298 3.295a.54.54 0 01.524-.423h8.258a.54.54 0 01.524.418l.678 3.23H19.62l.678-3.225zM1.466 5.939h2.627v2.628H1.466V5.94zm2.627 35.07H1.466V38.38h2.627v2.628zm17.84 3.228v2.89H8.872v-2.89h2.232a.733.733 0 00.717-.582l2.094-9.965a.733.733 0 10-1.435-.301l-1.262 6.01H5.559V38.22c0-.72-.585-1.304-1.305-1.304h-.742V10.033h.742c.72 0 1.305-.586 1.305-1.305v-.742h12.256L13.12 30.332a.733.733 0 001.434.301l4.757-22.647H30.59L37.188 39.4H30.4l-.484-2.951a.733.733 0 00-.723-.614H20.71a.733.733 0 00-.723.614l-1.137 6.937a.733.733 0 00.723.852h2.361zm-.946-4.837l.344-2.1h7.24l.344 2.1h-7.928zm17.095 4.255c.071.34.37.582.717.582h2.232v2.89H27.97v-2.89h2.361a.733.733 0 00.724-.85l-.414-2.522h6.856l.586 2.79zm10.453-2.646h-2.628V38.38h2.628v2.628zm-2.628-35.07h2.628v2.628h-2.628V5.94z"/><path d="M22.055 30.592h5.792a.733.733 0 00.719-.877l-.561-2.797a.733.733 0 00-1.437.289l.385 1.92h-4.004l2.002-9.977 1.001 4.99a.733.733 0 001.437-.288l-1.386-6.908a1.063 1.063 0 00-1.052-.862c-.518 0-.95.355-1.052.862l-2.563 12.772a.733.733 0 00.719.876z"/></g><defs><clipPath id="clip0"><path fill="#fff" d="M0 0h50v50H0z"/></clipPath></defs></svg>