<svg width="50" height="50" fill="none" xmlns="http://www.w3.org/2000/svg"><g clip-path="url(#clip0)" fill="#fff"><path d="M26.66 9.766a.977.977 0 100-1.954.977.977 0 000 1.954zm-1.615 10.511a.976.976 0 001.357-.254 14.078 14.078 0 002.26-5.531c.12-.672.17-1.347.151-2.008a.977.977 0 00-1.952.059 7.85 7.85 0 01-.121 1.607 12.15 12.15 0 01-1.949 4.77.976.976 0 00.254 1.357z"/><path d="M7.52 3.906a.978.978 0 00-.874 1.414c2.637 5.273 3.803 7.832 3.803 13.235v7.812c0 4.518 2.373 8.492 5.937 10.742H13.38a.976.976 0 00-.977.977v3.906c0 .54.437.977.977.977h.976v6.054c0 .54.438.977.977.977h19.531c.54 0 .977-.437.977-.977V42.97h.976c.54 0 .977-.437.977-.977v-3.906a.976.976 0 00-.977-.977h-.625a8.695 8.695 0 001.43-1.177c1.45-1.49 2.185-3.418 2.127-5.577a2.907 2.907 0 01.828-2.124 2.907 2.907 0 012.1-.887.977.977 0 00.873-1.414l-1.042-2.084a4.25 4.25 0 00-3.82-2.362 4.292 4.292 0 00-3.668 2.082l-.007.013a.265.265 0 01-.009.013l-1.532 2.761a4.888 4.888 0 00-4.467-2.916c-.07 0-.14.004-.21.007l.831-1.214c3.226-4.713 4.193-10.46 1.564-15.444C28.981 2.6 24.637 0 19.852 0h-2.567a.977.977 0 00-.812 1.519l.674 1.01c1.806 2.71 1.995 5.323 1.647 7.587A13.324 13.324 0 007.52 3.906zm4.882 22.461v-7.812c0-5.444-1.205-8.434-3.246-12.576a11.444 11.444 0 018.925 7.01c-1.007 3.089-2.554 5.918-2.946 8.499-.358 2.362-.267 4.778.266 6.988.559 2.316 1.606 4.416 3.031 6.073a12.46 12.46 0 002.728 2.376c-4.978-.934-8.758-5.312-8.758-10.558zm3.906 16.602h17.579v5.078H16.308v-5.078zm19.532-3.907v1.954H14.355v-1.953H35.84zm-6.836-13.671c2.051 0 3.452 2.055 2.748 3.946a2.938 2.938 0 01-2.748 1.913 2.933 2.933 0 01-2.93-2.93c0-1.617 1.32-2.93 2.93-2.93zM19.852 1.953c4.058 0 7.74 2.201 9.61 5.744 2.141 4.06 1.613 8.956-1.449 13.43-.13.192-2.832 4.14-2.962 4.329a4.84 4.84 0 00-.93 2.864 4.888 4.888 0 004.883 4.883 4.903 4.903 0 004.427-2.823c.173-.178.004.038 3.27-5.82a2.329 2.329 0 011.986-1.122c.883 0 1.678.49 2.073 1.281l.447.894a4.862 4.862 0 00-2.031 1.256 4.845 4.845 0 00-1.38 3.54c.044 1.642-.486 3.042-1.575 4.16-1.57 1.615-4.2 2.54-7.217 2.54-3.791 0-6.935-1.325-9.09-3.833-2.445-2.843-3.509-7.14-2.848-11.495.344-2.265 1.856-5.073 2.869-8.179a.979.979 0 00.184-.585c.839-2.781 1.543-6.828-1.024-11.064h.757z"/></g><defs><clipPath id="clip0"><path fill="#fff" d="M0 0h50v50H0z"/></clipPath></defs></svg>