<svg width="45" height="45" fill="none" xmlns="http://www.w3.org/2000/svg"><path d="M42.363 1.758a2.641 2.641 0 00-2.485 1.758h-6.48a3.515 3.515 0 10-7.031 0h-3.515a3.515 3.515 0 10-7.031 0h-3.516a3.515 3.515 0 10-7.031 0H.878a.879.879 0 100 1.756h4.394a1.76 1.76 0 01-1.757 1.76H.879A.879.879 0 000 7.91v12.832a.879.879 0 101.758 0V8.79h1.758A3.52 3.52 0 007.03 5.273V3.516a1.758 1.758 0 113.516 0v1.757a3.515 3.515 0 107.031 0V3.516a1.758 1.758 0 113.516 0v1.757a3.515 3.515 0 107.031 0V3.516a1.758 1.758 0 113.516 0v37.968a1.758 1.758 0 11-3.516 0V18.457a.879.879 0 10-1.758 0v18.225a3.492 3.492 0 00-1.758-.471c-.64 0-1.24.173-1.757.473V11.426a.879.879 0 10-1.758 0v30.058a1.758 1.758 0 11-3.516 0V18.457a.879.879 0 10-1.758 0v18.225a3.492 3.492 0 00-1.758-.471c-.64 0-1.24.173-1.757.473V11.426a.879.879 0 10-1.758 0v30.058a1.758 1.758 0 11-3.516 0V18.457a.879.879 0 10-1.758 0v18.227a3.49 3.49 0 00-1.757-.473H1.758v-8.438a.879.879 0 10-1.758 0v9.317c0 .485.393.879.879.879h2.637c.969 0 1.757.788 1.757 1.758v1.757a3.515 3.515 0 107.031 0v-1.757a1.758 1.758 0 113.516 0v1.757a3.515 3.515 0 107.031 0v-1.757a1.758 1.758 0 113.516 0v1.757a3.515 3.515 0 107.031 0V5.274h6.48a2.641 2.641 0 002.485 1.757A2.64 2.64 0 0045 4.395a2.64 2.64 0 00-2.637-2.637zm-28.3 5.273a1.759 1.759 0 01-1.758-1.759h3.515a1.76 1.76 0 01-1.758 1.76zm10.546 0c-.97 0-1.757-.788-1.757-1.759h3.515a1.76 1.76 0 01-1.758 1.76zm17.754-1.758a.88.88 0 11.002-1.759.88.88 0 01-.002 1.76z" fill="#fff"/><path d="M1.758 24.258a.879.879 0 11-1.758 0 .879.879 0 011.758 0z" fill="#fff"/></svg>