<svg width="124" height="56" fill="none" xmlns="http://www.w3.org/2000/svg"><path d="M34.438.438h86.624a1.97 1.97 0 011.969 1.968v51.188a1.97 1.97 0 01-1.969 1.968H34.438a1.969 1.969 0 01-1.97-1.968V2.406a1.969 1.969 0 011.97-1.969zm54.207 31.037l30.449 18.608V6.563L88.645 31.474zm-3.23 2.642l-6.419 5.25a1.969 1.969 0 01-2.492 0l-6.418-5.25-28.65 17.508h72.628l-28.65-17.508zm-18.56-2.642L36.406 6.562v43.522l30.449-18.61zM39.95 4.375L77.75 35.3l37.8-30.925h-75.6z" fill="#E0DACC"/><path d="M89.563 6.344h13.781a1.968 1.968 0 110 3.937H89.563a1.969 1.969 0 010-3.937zm-7.875 0h1.968a1.969 1.969 0 110 3.937h-1.969a1.969 1.969 0 010-3.937zm-53.157 0H2.938a1.969 1.969 0 010-3.938H28.53a1.969 1.969 0 110 3.938zm0 7.875h-9.843a1.969 1.969 0 010-3.938h9.843a1.969 1.969 0 010 3.938zm-15.75-3.938a1.969 1.969 0 010 3.938h-1.969a1.969 1.969 0 010-3.938h1.97zm15.75 11.813h-7.875a1.969 1.969 0 010-3.938h7.875a1.969 1.969 0 010 3.938zM2.938 51.625H28.53a1.969 1.969 0 110 3.938H2.938a1.969 1.969 0 110-3.938zm25.593-3.937h-15.75a1.969 1.969 0 110-3.938h15.75a1.969 1.969 0 110 3.938zm0-7.875h-1.968a1.969 1.969 0 110-3.938h1.968a1.969 1.969 0 110 3.938z" fill="#E0DACC"/></svg>