<svg width="72" height="43" fill="none" xmlns="http://www.w3.org/2000/svg"><path d="M41.187 15.405c0 .098.064.191.177.26l10.475 6.337-10.475 6.338c-.232.145-.226.377.015.518a.912.912 0 00.842 0l10.902-6.597c.236-.143.236-.375 0-.518L42.22 15.146a.908.908 0 00-.857 0c-.113.07-.177.162-.177.26z" fill="#fff" fill-opacity=".8"/><path d="M.388 22c0 .35.487.633 1.089.633h50.096c.602 0 1.09-.284 1.09-.633 0-.35-.488-.633-1.09-.633H1.478c-.602 0-1.09.284-1.09.633z" fill="#fff" fill-opacity=".8"/><path stroke="#fff" stroke-opacity=".8" stroke-width="2" d="M50.447 2.033l19.628 19.628-19.628 19.628L30.819 21.66z"/></svg>