<svg width="86" height="50" fill="none" xmlns="http://www.w3.org/2000/svg"><path d="M49.111 17.518c0 .114.075.222.21.303l12.414 7.382-12.414 7.383c-.276.17-.268.44.017.604.278.16.72.16.998 0l12.92-7.685c.28-.167.28-.437 0-.604l-12.92-7.685c-.281-.166-.736-.166-1.016.001-.134.08-.209.188-.209.301z" fill="#405A26"/><path d="M.756 25.2c0 .408.578.738 1.29.738H61.42c.713 0 1.291-.33 1.291-.737s-.578-.737-1.29-.737H2.045c-.712 0-1.29.33-1.29.737z" fill="#405A26"/><path transform="scale(1.00858 .99135) rotate(45 29.417 73.468)" stroke="#405A26" stroke-width="2" d="M0 1.402h32.969v32.969H0z"/></svg>