<svg width="98" height="57" fill="none" xmlns="http://www.w3.org/2000/svg"><path d="M64 16.704c0 .154.1.301.278.41l16.43 10.015-16.43 10.015c-.365.23-.355.596.023.818.368.217.952.217 1.32 0l17.1-10.424c.372-.227.372-.593 0-.82l-17.1-10.424c-.372-.226-.974-.225-1.344.001-.177.109-.277.256-.277.409z" fill="#202020"/><path d="M0 27.625c0 .276.765.5 1.708.5h78.584c.943 0 1.708-.224 1.708-.5s-.765-.5-1.708-.5H1.708c-.943 0-1.708.224-1.708.5z" fill="#202020"/><path stroke="#202020" d="M69.708.707l27.577 27.577L69.708 55.86 42.131 28.284z"/></svg>