<svg width="554" height="902" fill="none" xmlns="http://www.w3.org/2000/svg"><path d="M36.79 368.752a93.112 93.112 0 00-24.25 25.204 10.565 10.565 0 00.129 11.745 10.586 10.586 0 006.776 4.42 10.563 10.563 0 0010.801-4.614 72.047 72.047 0 0118.768-19.514 10.571 10.571 0 00-12.225-17.248v.007z" fill="#405A26" fill-opacity=".05"/><path d="M-154.651 822.027h-77.481V337.799c0-.176.025-.338.025-.511 0-83.599 64.493-151.612 143.765-151.612 76.207 0 138.723 62.869 143.443 142.004a93.269 93.269 0 00-82.262 92.49v16.516a10.568 10.568 0 0010.57 10.57h47.038c4.672 16.913 19.78 29.405 37.475 29.405s32.802-12.485 37.472-29.405h43.178c2.804 0 5.492-1.113 7.474-3.096a10.565 10.565 0 003.096-7.474V420.17a93.277 93.277 0 00-82.844-92.568C71.486 236.833-.513 164.532-88.34 164.532c-90.627 0-164.404 76.987-164.897 171.805-.018.245-.037.49-.037.738v484.948h-66.538a10.572 10.572 0 100 21.141h165.161a10.571 10.571 0 000-21.141v.004zM67.921 455.524a17.511 17.511 0 01-14.593-8.264h29.183a17.515 17.515 0 01-14.59 8.264zM138 420.17v5.946H-6.02v-5.946a72.012 72.012 0 01122.929-50.919A72.014 72.014 0 01138 420.17z" fill="#405A26" fill-opacity=".05"/><path d="M486.461 658.707v-69.941a44.549 44.549 0 00-44.837-44.148H248.197a44.425 44.425 0 00-31.711 13.086 46.858 46.858 0 00-2.477 2.72 45.025 45.025 0 00-34.342-15.806H-14.859a44.548 44.548 0 00-44.84 44.148v70.141a51.115 51.115 0 00-46.604 50.486v123.209a10.573 10.573 0 0010.57 10.571h81.954a10.572 10.572 0 0010.57-10.571v-14.081l436.5.134v13.947a10.57 10.57 0 0010.57 10.571h81.952a10.571 10.571 0 0010.57-10.571V709.388a51.16 51.16 0 00-49.922-50.681zm-255-86.089a23.426 23.426 0 0116.736-6.87h193.427a23.385 23.385 0 0123.696 23.008v73.691a50.805 50.805 0 00-32.029 46.935v4.14l-208.732-.052.026-123.65a23.983 23.983 0 016.876-17.202zm-246.32-6.87h194.522a23.386 23.386 0 0123.697 23.018l.047 124.698-206.616-.056v-4.019a50.886 50.886 0 00-35.349-48.142v-72.481a23.39 23.39 0 0123.7-23.013v-.005zm-9.49 256.273h-60.813V709.388a30.416 30.416 0 0130.406-29.584 30.418 30.418 0 0130.407 29.584v112.633zm21.14-24.651v-62.823l217.181.06h.016l219.301.061v62.841l-436.498-.139zm518.451 24.657h-60.811V709.388a30.415 30.415 0 0160.811 0v112.639z" fill="#405A26" fill-opacity=".05"/></svg>