<svg width="107" height="64" viewBox="0 0 107 64" fill="none" xmlns="http://www.w3.org/2000/svg">
<path d="M66 19.658C65.9995 19.8327 66.115 20.0003 66.3213 20.124L85.3459 31.5043L66.3212 42.8847C65.899 43.1461 65.9112 43.5627 66.3482 43.8153C66.7745 44.0616 67.4503 44.0616 67.8766 43.8153L87.6779 31.969C88.1074 31.712 88.1074 31.2954 87.6779 31.0383L67.8766 19.192C67.4463 18.9354 66.7498 18.9361 66.3208 19.1935C66.1154 19.3169 66 19.4839 66 19.658Z" fill="#AF7C38"/>
<line y1="30.5" x2="87" y2="30.5" stroke="#AF7C38"/>
<rect x="-0.748183" y="0.00239241" width="46.7051" height="46.7051" transform="matrix(-0.746061 0.665877 -0.750305 -0.661092 104.861 32.7365)" stroke="#454547" stroke-opacity="0.8"/>
<rect x="-0.748183" y="0.00239241" width="46.7051" height="46.7051" transform="matrix(-0.746061 0.665877 -0.750305 -0.661092 104.861 32.7365)" stroke="#AF7C38"/>
</svg>
