<svg width="50" height="51" viewBox="0 0 50 51" fill="none" xmlns="http://www.w3.org/2000/svg">
<circle cx="22.5" cy="22.5" r="22.5" fill="#BBA040" fill-opacity="0.8"/>
<g clip-path="url(#clip0)">
<path d="M27.5343 15.6992C21.1652 15.6992 15.9617 20.9027 15.9617 27.2718C15.9617 30.6021 17.4187 33.8075 19.8747 35.9721C21.7064 37.8038 21.5398 41.7168 21.4982 41.7584C21.4982 41.9666 21.5398 42.1331 21.7064 42.2996C21.8312 42.4245 22.0394 42.5077 22.2059 42.5077H32.8211C33.0292 42.5077 33.1957 42.4245 33.3206 42.2996C33.4455 42.1747 33.5287 41.9666 33.5287 41.7584C33.5287 41.7168 33.3206 37.8038 35.1522 35.9721C35.1939 35.9305 35.2355 35.8889 35.2771 35.8472C37.6915 33.6409 39.1069 30.5188 39.1069 27.2718C39.1069 20.9027 33.9034 15.6992 27.5343 15.6992ZM34.1948 34.8898C34.1532 34.9314 34.0699 35.0147 34.0699 35.0563C32.4464 36.8047 32.155 39.677 32.1134 41.0508H22.9136C22.8719 39.677 22.5805 36.6798 20.8322 34.8898C18.6259 32.9749 17.3354 30.1858 17.3354 27.2302C17.3354 21.6104 21.8729 17.0729 27.4927 17.0729C33.1125 17.0729 37.6499 21.6104 37.6499 27.2302C37.6499 30.1858 36.4011 32.9749 34.1948 34.8898Z" fill="white"/>
<path d="M27.4927 18.6548C27.118 18.6548 26.785 18.9878 26.785 19.3625C26.785 19.7371 27.118 20.0701 27.4927 20.0701C31.6971 20.0701 35.069 23.4836 35.069 27.6464C35.069 28.0211 35.402 28.3541 35.7766 28.3541C36.1513 28.3541 36.4843 28.0211 36.4843 27.6464C36.526 22.6927 32.488 18.6548 27.4927 18.6548Z" fill="white"/>
<path d="M32.1134 43.2988H22.8719C21.9145 43.2988 21.1235 44.0898 21.1235 45.0472C21.1235 46.0047 21.9145 46.7956 22.8719 46.7956H32.0717C33.0708 46.754 33.8617 46.0047 33.8617 45.0472C33.8617 44.0898 33.0708 43.2988 32.1134 43.2988ZM32.1134 45.3386H22.8719C22.7054 45.3386 22.5389 45.2137 22.5389 45.0056C22.5389 44.7974 22.6638 44.6726 22.8719 44.6726H32.0717C32.2382 44.6726 32.4047 44.7974 32.4047 45.0056C32.4047 45.2137 32.2799 45.3386 32.1134 45.3386Z" fill="white"/>
<path d="M30.7397 47.5034H24.2457C23.2882 47.5034 22.4973 48.2944 22.4973 49.2518C22.4973 50.2092 23.2882 51.0002 24.2457 51.0002H30.7397C31.6971 51.0002 32.4881 50.2092 32.4881 49.2518C32.4881 48.2527 31.6971 47.5034 30.7397 47.5034ZM30.7397 49.5432H24.2457C24.0792 49.5432 23.9127 49.4183 23.9127 49.2102C23.9127 49.002 24.0376 48.8771 24.2457 48.8771H30.7397C30.9062 48.8771 31.0727 49.002 31.0727 49.2102C31.0727 49.4183 30.9062 49.5432 30.7397 49.5432Z" fill="white"/>
<path d="M27.4927 12.2442C27.9089 12.2442 28.2003 11.9112 28.2003 11.5365V6.70768C28.2003 6.33303 27.8673 6 27.4927 6C27.118 6 26.785 6.33303 26.785 6.70768V11.5365C26.785 11.9112 27.118 12.2442 27.4927 12.2442Z" fill="white"/>
<path d="M39.2734 9.57972C38.9404 9.32995 38.5241 9.45484 38.316 9.74623L35.6518 13.7425C35.402 14.0756 35.4852 14.5335 35.8183 14.7416C35.9432 14.8249 36.068 14.8665 36.1929 14.8665C36.4427 14.8665 36.6508 14.7416 36.7757 14.5335L39.4399 10.5372C39.6897 10.2458 39.6064 9.78786 39.2734 9.57972Z" fill="white"/>
<path d="M19.0422 14.7003C19.1671 14.7003 19.2919 14.6587 19.4168 14.5754C19.7498 14.3673 19.8331 13.9094 19.625 13.5763L17.044 9.53841C16.8359 9.20539 16.378 9.12213 16.0449 9.33027C15.7119 9.53841 15.6287 9.99632 15.8368 10.3293L18.4177 14.3673C18.5843 14.617 18.7924 14.7003 19.0422 14.7003Z" fill="white"/>
<path d="M14.0051 19.1125L9.8007 16.8229C9.46767 16.6564 9.00976 16.7813 8.84325 17.1143C8.63511 17.4474 8.75999 17.9053 9.13465 18.0718L13.3391 20.3613C13.464 20.403 13.5472 20.4446 13.6721 20.4446C13.9219 20.4446 14.1716 20.3197 14.2965 20.0699C14.463 19.7369 14.3382 19.279 14.0051 19.1125Z" fill="white"/>
<path d="M46.1837 17.1143C46.0172 16.7813 45.5593 16.6564 45.2263 16.8229L40.9802 19.1125C40.6472 19.279 40.5223 19.7369 40.6888 20.0699C40.8137 20.3197 41.0634 20.4446 41.3132 20.4446C41.4381 20.4446 41.563 20.403 41.6462 20.3613L45.8923 18.0718C46.2253 17.9053 46.3502 17.4474 46.1837 17.1143Z" fill="white"/>
</g>
<defs>
<clipPath id="clip0">
<rect width="45" height="45" fill="white" transform="translate(5 6)"/>
</clipPath>
</defs>
</svg>
