<svg width="49" height="46" viewBox="0 0 49 46" fill="none" xmlns="http://www.w3.org/2000/svg">
<circle cx="22.5" cy="22.5" r="22.5" fill="#BBA040" fill-opacity="0.8"/>
<g clip-path="url(#clip0)">
<path d="M34.1622 33.6414C34.1622 33.2774 33.867 32.9822 33.503 32.9822C32.8937 32.9822 15.2289 32.9822 14.6065 32.9822C14.4854 32.9822 14.3868 32.8836 14.3868 32.7625V29.0258C14.3868 26.6176 15.0916 24.2914 16.4249 22.2987C16.6273 21.9961 16.5462 21.5867 16.2436 21.3843C15.941 21.182 15.5316 21.263 15.3291 21.5656C13.8501 23.7761 13.0684 26.3557 13.0684 29.0258V32.7625C13.0684 33.6106 13.7584 34.3006 14.6065 34.3006H21.1994C21.7355 36.7676 23.9175 38.5623 26.5 38.5623C29.0826 38.5623 31.2646 36.7676 31.8007 34.3006H33.503C33.867 34.3006 34.1622 34.0055 34.1622 33.6414ZM26.5 37.244C24.6445 37.244 23.0613 36.021 22.5578 34.3006H30.4422C29.9388 36.021 28.3556 37.244 26.5 37.244Z" fill="white"/>
<path d="M35.5338 19.0859C35.5337 19.0858 35.5335 19.0856 35.5334 19.0855C34.0211 17.7106 32.2355 16.7136 30.3118 16.1452V14.4198C30.3118 13.1638 29.29 12.142 28.0339 12.142H27.1592V1.65918C27.1592 1.29514 26.8641 1 26.5001 1C26.136 1 25.8409 1.29514 25.8409 1.65918V12.142H24.9662C23.7101 12.142 22.6883 13.1638 22.6883 14.4198V16.1449C20.7491 16.7177 18.9509 17.7261 17.4304 19.1187C17.162 19.3646 17.1437 19.7815 17.3896 20.05C17.6355 20.3184 18.0524 20.3368 18.3209 20.0909C22.9443 15.8562 30.0264 15.8613 34.6451 20.0598C34.6455 20.0602 34.6459 20.0606 34.6465 20.061C37.1674 22.3533 38.6133 25.6209 38.6133 29.0259V32.7625C38.6133 32.8836 38.5147 32.9823 38.3936 32.9823H36.5792C36.2151 32.9823 35.92 33.2774 35.92 33.6414C35.92 34.0055 36.2151 34.3006 36.5792 34.3006H38.3936C39.2416 34.3006 39.9317 33.6106 39.9317 32.7625V29.0259C39.9317 25.2504 38.3286 21.6274 35.5338 19.0859ZM28.9934 15.8258C27.412 15.5289 25.7128 15.5055 24.0067 15.8258V14.4198C24.0067 13.8907 24.4371 13.4603 24.9662 13.4603H28.0339C28.563 13.4603 28.9934 13.8907 28.9934 14.4198V15.8258Z" fill="white"/>
<path d="M26.5 40.7227C26.136 40.7227 25.8408 41.0178 25.8408 41.3818V45.3408C25.8408 45.7049 26.136 46 26.5 46C26.864 46 27.1592 45.7049 27.1592 45.3408V41.3818C27.1592 41.0178 26.864 40.7227 26.5 40.7227Z" fill="white"/>
<path d="M34.0742 38.289C33.817 38.0314 33.3996 38.0313 33.142 38.2886C32.8844 38.5459 32.8842 38.9632 33.1415 39.2208L35.9382 42.0203C36.1953 42.2777 36.6127 42.2783 36.8705 42.0207C37.128 41.7634 37.1283 41.3461 36.8709 41.0885L34.0742 38.289Z" fill="white"/>
<path d="M18.9259 38.289L16.1292 41.0885C15.872 41.3461 15.8721 41.7634 16.1297 42.0207C16.3872 42.2779 16.8044 42.2779 17.0619 42.0203L19.8586 39.2208C20.1159 38.9632 20.1157 38.5459 19.8582 38.2886C19.6006 38.0313 19.1832 38.0314 18.9259 38.289Z" fill="white"/>
</g>
<defs>
<clipPath id="clip0">
<rect width="45" height="45" fill="white" transform="translate(4 1)"/>
</clipPath>
</defs>
</svg>
