<svg width="50" height="50" viewBox="0 0 50 50" fill="none" xmlns="http://www.w3.org/2000/svg">
<circle cx="22.5" cy="22.5" r="22.5" fill="#BBA040" fill-opacity="0.8"/>
<path d="M47.7698 21.8074H46.8758V18.4847C46.8758 16.5204 45.2777 14.9224 43.3135 14.9224H30.4031C29.2063 14.9224 28.1463 15.5162 27.5 16.4241C26.8537 15.5162 25.7937 14.9224 24.5969 14.9224H16.4862C16.1221 14.9224 15.827 15.2175 15.827 15.5815C15.827 15.9456 16.1221 16.2407 16.4862 16.2407H24.5969C25.8342 16.2407 26.8408 17.2473 26.8408 18.4847V25.0773C26.827 25.0641 26.8124 25.0517 26.7985 25.0386C26.0171 24.31 24.9581 23.8901 23.8892 23.8901H12.9092C12.8511 23.005 12.2477 22.2266 11.4151 21.9315C11.1806 21.8483 10.9325 21.8074 10.6837 21.8074H9.44261V18.4847C9.44261 17.2473 10.4492 16.2407 11.6865 16.2407H13.8494C14.2135 16.2407 14.5086 15.9456 14.5086 15.5815C14.5086 15.2175 14.2135 14.9224 13.8494 14.9224H11.6865C9.72228 14.9224 8.12425 16.5204 8.12425 18.4847V21.8074H7.23022C6.00046 21.8074 5 22.808 5 24.0376V30.9204C5 33.4813 7.08354 35.5649 9.64449 35.5649H9.97575C9.97575 35.5649 9.25399 37.5062 9.25347 37.5077C8.79811 38.7324 9.73537 40.0777 11.0398 40.0777H12.1003C12.6939 40.0777 13.2622 39.7951 13.6203 39.3216L16.4619 35.5649H38.5383L41.3799 39.3217C41.738 39.7951 42.3062 40.0777 42.8998 40.0777C42.8998 40.0777 43.9595 40.0777 43.9602 40.0777C45.2662 40.0777 46.2018 38.7321 45.7465 37.5077L45.0242 35.5649H45.3555C47.9165 35.5649 50 33.4813 50 30.9204V24.0376C50 22.808 48.9995 21.8074 47.7698 21.8074ZM28.1592 18.4848C28.1592 17.2474 29.1658 16.2408 30.4031 16.2408H43.3135C44.5508 16.2408 45.5574 17.2474 45.5574 18.4847V21.8074C45.5574 21.8074 44.3166 21.8074 44.3162 21.8074C43.4398 21.8074 42.599 22.3699 42.259 23.177C42.1638 23.4029 42.1068 23.6457 42.0908 23.8903C42.0908 23.8903 31.1112 23.8903 31.1108 23.8903C30.0254 23.8903 28.9435 24.327 28.1592 25.0775V18.4848ZM12.914 25.2086H23.8892C25.5167 25.2086 26.8408 26.5327 26.8408 28.1603V29.0976H12.914V25.2086ZM12.5689 38.5263C12.4585 38.6722 12.2832 38.7593 12.1002 38.7593C12.1002 38.7593 11.0434 38.7593 11.0398 38.7593C10.6362 38.7593 10.3485 38.3453 10.4891 37.9672L11.3823 35.5649H14.8088L12.5689 38.5263ZM43.9602 38.7593H42.8998C42.7168 38.7593 42.5416 38.6722 42.4312 38.5263L40.1912 35.5649H43.6177C43.6177 35.5649 44.5078 37.9588 44.5109 37.9671C44.6518 38.3461 44.3621 38.7593 43.9602 38.7593ZM45.3555 34.2465H9.64449C7.81048 34.2466 6.31836 32.7544 6.31836 30.9204V24.0376C6.31836 23.5348 6.7274 23.1257 7.23022 23.1257H10.6837C11.1865 23.1257 11.5956 23.5348 11.5956 24.0376V29.7567C11.5956 30.1208 11.8907 30.4159 12.2548 30.4159H36.4666C36.8306 30.4159 37.1258 30.1208 37.1258 29.7567C37.1258 29.3927 36.8306 29.0975 36.4666 29.0975H28.1592V28.1602C28.1592 26.5326 29.4833 25.2086 31.1108 25.2086H42.086V29.0976H39.1033C38.7393 29.0976 38.4441 29.3928 38.4441 29.7568C38.4441 30.1208 38.7393 30.416 39.1033 30.416H42.7452C43.1092 30.416 43.4043 30.1208 43.4043 29.7568V24.0377C43.4043 23.5349 43.8134 23.1258 44.3162 23.1258H47.7697C48.2725 23.1258 48.6816 23.5349 48.6816 24.0377V30.9204H48.6816C48.6816 32.7544 47.1895 34.2465 45.3555 34.2465Z" fill="white"/>
</svg>
