<svg width="51" height="49" viewBox="0 0 51 49" fill="none" xmlns="http://www.w3.org/2000/svg">
<circle cx="22.5" cy="22.5" r="22.5" fill="#BBA040" fill-opacity="0.8"/>
<path d="M21.7564 16.9307H17.0171C16.61 16.9307 16.28 17.2607 16.28 17.6677C16.28 18.0748 16.61 18.4048 17.0171 18.4048H21.7564C22.1634 18.4048 22.4934 18.0748 22.4934 17.6677C22.4934 17.2607 22.1634 16.9307 21.7564 16.9307Z" fill="white"/>
<path d="M21.7564 23.291H17.0171C16.61 23.291 16.28 23.621 16.28 24.0281C16.28 24.4351 16.61 24.7651 17.0171 24.7651H21.7564C22.1634 24.7651 22.4934 24.4351 22.4934 24.0281C22.4934 23.621 22.1634 23.291 21.7564 23.291Z" fill="white"/>
<path d="M21.7564 29.6748H17.0171C16.61 29.6748 16.28 30.0048 16.28 30.4119C16.28 30.8189 16.61 31.1489 17.0171 31.1489H21.7564C22.1634 31.1489 22.4934 30.8189 22.4934 30.4119C22.4934 30.0048 22.1634 29.6748 21.7564 29.6748Z" fill="white"/>
<path d="M21.7564 36.0938H17.0171C16.61 36.0938 16.28 36.4238 16.28 36.8308C16.28 37.2378 16.61 37.5679 17.0171 37.5679H21.7564C22.1634 37.5679 22.4934 37.2378 22.4934 36.8308C22.4934 36.4238 22.1634 36.0938 21.7564 36.0938Z" fill="white"/>
<path d="M32.9965 19.5322L28.6847 17.5569C28.3143 17.3879 27.8771 17.5513 27.7081 17.9217C27.5392 18.2922 27.7025 18.7294 28.073 18.8983L32.3847 20.8736C32.7552 21.0426 33.1924 20.8792 33.3613 20.5088C33.5302 20.1383 33.3669 19.7012 32.9965 19.5322Z" fill="white"/>
<path d="M47.6639 21.2351L45.2537 18.4048C44.4923 17.4635 43.3907 16.8598 42.1876 16.7243C41.0033 16.6747 39.8503 17.1114 38.9961 17.9331L37.323 19.4072L37.9643 18.0142C38.9151 15.9283 38.3475 14.4837 37.6989 13.6361C37.1934 12.9954 36.5377 12.489 35.7899 12.162L32.4437 10.5847C30.5053 9.7002 27.9477 9.80339 26.5915 12.7958L25.6554 14.8375V13.4223C25.6554 10.1645 23.3779 9 21.2331 9H17.5478C15.4104 9 13.1255 10.1572 13.1255 13.4223V44.5777C13.1255 47.8355 15.403 49 17.5478 49H21.2331C23.6359 49 24.9184 47.7617 25.3901 46.2508L47.2069 27.4264C48.1377 26.709 48.7385 25.6456 48.8727 24.4782C48.9073 23.281 48.4737 22.1176 47.6639 21.2351ZM24.1813 44.5777C24.1813 45.6759 23.7981 47.5259 21.2331 47.5259H17.5478C16.4496 47.5259 14.5996 47.1426 14.5996 44.5777V13.4223C14.5996 10.8648 16.4422 10.4741 17.5478 10.4741H21.2331C22.3313 10.4741 24.1813 10.8574 24.1813 13.4223V44.5777ZM27.6971 31.1117L25.6554 30.1977V24.8172L29.724 26.6746C30.0944 26.8436 30.5316 26.6802 30.7006 26.3097C30.8695 25.9393 30.7062 25.5021 30.3357 25.3331L26.024 23.3652C25.9076 23.3167 25.7806 23.299 25.6554 23.3136V18.3532L27.9329 13.3929C28.9943 11.0638 30.8296 11.4839 31.832 11.9187L35.2003 13.4592C35.7278 13.6872 36.191 14.0416 36.5491 14.4911C37.1488 15.3425 37.1865 16.4686 36.6449 17.3582L29.3628 33.2786L25.6775 41.3862V31.8045L27.0853 32.4531C27.4558 32.6221 27.8929 32.4587 28.0619 32.0883C28.2308 31.7178 28.0674 31.2806 27.6971 31.1117ZM46.2488 26.3061L26.304 43.5163L30.2325 34.9296L31.2497 36.0942C31.5044 36.4116 31.9684 36.4624 32.2858 36.2077C32.6033 35.9529 32.6541 35.4889 32.3993 35.1716C32.3832 35.1515 32.366 35.1322 32.3479 35.1139L30.8738 33.4997L33.1439 28.5467L36.0479 31.9151C36.3186 32.2305 36.7938 32.2668 37.1093 31.9961C37.4247 31.7254 37.461 31.2502 37.1903 30.9348L34.08 27.3306C33.9995 27.2412 33.8982 27.1728 33.7852 27.1316L35.8637 22.5913L39.9764 19.0461C40.5382 18.4888 41.3004 18.1807 42.0918 18.1911C42.8931 18.301 43.6201 18.7186 44.1187 19.3556L46.5362 22.1638C47.0926 22.765 47.3984 23.5559 47.3912 24.375C47.2797 25.1441 46.8692 25.8381 46.2488 26.3061Z" fill="white"/>
<path d="M42.0255 26.7484L38.9299 23.159C38.6538 22.8599 38.1875 22.8412 37.8884 23.1173C37.6022 23.3815 37.571 23.8226 37.817 24.1245L40.9126 27.714C41.1887 28.0131 41.6549 28.0317 41.9541 27.7556C42.2402 27.4915 42.2715 27.0504 42.0255 26.7484Z" fill="white"/>
<path d="M19.3905 40.6719C17.9739 40.6719 16.8256 41.8202 16.8256 43.2368C16.8256 44.6534 17.9739 45.8018 19.3905 45.8018C20.8071 45.8018 21.9555 44.6534 21.9555 43.2368C21.9555 41.8202 20.8071 40.6719 19.3905 40.6719ZM19.3905 44.3277V44.3572C18.7881 44.3572 18.2997 43.8688 18.2997 43.2663C18.2997 42.6639 18.7881 42.1755 19.3905 42.1755C19.993 42.1755 20.4814 42.6639 20.4814 43.2663C20.4653 43.8572 19.9816 44.3279 19.3905 44.3277Z" fill="white"/>
</svg>
