<svg width="49" height="49" viewBox="0 0 49 49" fill="none" xmlns="http://www.w3.org/2000/svg">
<circle cx="22.5" cy="22.5" r="22.5" fill="#BBA040" fill-opacity="0.8"/>
<path d="M48.983 35.5566C48.9776 35.5095 48.9671 35.4633 48.9517 35.4186C48.9483 35.4106 48.9517 35.4012 48.9457 35.3933L43.065 22.3266L48.2857 9.92664C48.3729 9.72063 48.351 9.48461 48.2274 9.29813C48.1037 9.11172 47.8947 8.99969 47.671 9H15.0043C14.736 8.99992 14.4938 9.1607 14.3896 9.40797L9.05629 22.0746C9.05629 22.0786 9.05629 22.0826 9.05629 22.0859C9.03863 22.1381 9.02769 22.1923 9.02363 22.2473C9.01488 22.278 9.0084 22.3095 9.00433 22.3412C9.00816 22.3748 9.01465 22.408 9.02363 22.4405C9.02894 22.4931 9.04074 22.5449 9.05894 22.5945C9.05863 22.5985 9.05863 22.6025 9.05894 22.6066L14.9376 35.6599L9.07097 48.0479C8.97332 48.254 8.98793 48.4957 9.10949 48.6887C9.23113 48.8816 9.44293 48.999 9.67097 48.9998H42.3376C42.5943 48.9989 42.8277 48.8505 42.9376 48.6185L48.9376 35.9519C48.9416 35.9439 48.9376 35.9352 48.9436 35.9266C48.9603 35.8816 48.9719 35.8348 48.9783 35.7873C48.9883 35.7499 48.9948 35.7118 48.9976 35.6733C48.9964 35.634 48.9914 35.5949 48.983 35.5566ZM41.9157 47.6666H10.7243L16.271 35.9519C16.275 35.9439 16.271 35.9352 16.277 35.9266C16.2936 35.8816 16.3053 35.8348 16.3117 35.7873C16.3217 35.7499 16.3282 35.7118 16.331 35.6733C16.3288 35.634 16.323 35.5949 16.3136 35.5566C16.3082 35.5096 16.2978 35.4634 16.2823 35.4187C16.2823 35.4107 16.2823 35.4013 16.2763 35.3934L10.3957 22.3266L15.447 10.3333H46.667L41.723 22.0746C41.723 22.0786 41.723 22.0826 41.723 22.0859C41.7053 22.1381 41.6944 22.1923 41.6903 22.2473C41.6827 22.2782 41.6774 22.3096 41.6743 22.3412C41.6782 22.3748 41.6846 22.408 41.6936 22.4405C41.6989 22.4931 41.7107 22.5449 41.7289 22.5945C41.7286 22.5985 41.7286 22.6025 41.7289 22.6066L47.6042 35.6599L41.9157 47.6666Z" fill="white"/>
<path d="M39.67 23.0001C40.0382 23.0001 40.3366 22.7017 40.3366 22.3335C40.3366 21.9653 40.0381 21.6669 39.67 21.6669H37.39L41.3593 13.2855C41.4571 13.079 41.4423 12.8367 41.3201 12.6436C41.1978 12.4504 40.9851 12.3334 40.7566 12.3335H19.4233C19.1666 12.3344 18.9333 12.4828 18.8233 12.7148L16.6033 17.3928L16.5913 17.4175L14.5813 21.6668H12.3366C11.9684 21.6668 11.67 21.9652 11.67 22.3334C11.67 22.7016 11.9684 23.0001 12.3366 23.0001H14.5719L16.7953 27.9401C16.949 28.271 17.3404 28.4168 17.6733 28.2672C18.0062 28.1176 18.1568 27.7281 18.0113 27.3934L17.5366 26.3334H25.92C26.0133 26.3325 26.1054 26.3115 26.19 26.2721C26.194 26.2724 26.198 26.2724 26.202 26.2721C26.2282 26.2558 26.253 26.2372 26.276 26.2168C26.3602 26.1758 26.4279 26.1074 26.468 26.0228C26.4943 25.9878 26.5166 25.95 26.5347 25.9101C26.5499 25.8634 26.5597 25.8151 26.564 25.7662C26.573 25.7336 26.5794 25.7004 26.5833 25.6669C26.5833 25.6622 26.5833 25.6582 26.5833 25.6535C26.579 25.6083 26.57 25.5636 26.5566 25.5201C26.5501 25.4772 26.5396 25.4351 26.5253 25.3941C26.5253 25.3894 26.5253 25.3848 26.5253 25.3801L25.3907 23.0001H35.9054L39.8033 31.6668H33.67C33.3018 31.6668 33.0033 31.9652 33.0033 32.3334C33.0033 32.7016 33.3018 33.0001 33.67 33.0001H40.4033L41.3033 35.0001H30.7587L29.3587 32.0474C29.341 32.0197 29.3212 31.9933 29.2994 31.9687C29.2744 31.9263 29.2449 31.8867 29.2114 31.8508C29.1418 31.8026 29.0697 31.7581 28.9954 31.7174C28.9519 31.7041 28.9072 31.6952 28.862 31.6908C28.8276 31.6797 28.7924 31.6717 28.7567 31.6668H19.9366L19.5133 30.7268C19.3595 30.3958 18.9682 30.25 18.6353 30.3997C18.3025 30.5493 18.1518 30.9387 18.2972 31.2735L19.9719 35.0001H18.3366C17.9684 35.0001 17.67 35.2987 17.67 35.6668C17.67 36.0349 17.9684 36.3334 18.3366 36.3334H19.95L15.9807 44.7148C15.8829 44.9214 15.8976 45.1637 16.0199 45.3568C16.1422 45.5499 16.3548 45.6669 16.5833 45.6669H37.9167C38.1734 45.6659 38.4068 45.5176 38.5167 45.2855L42.7587 36.3335H45.6701C46.0383 36.3335 46.3367 36.0351 46.3367 35.6669C46.3367 35.2987 46.0383 35.0002 45.6701 35.0002H42.768L37.3679 23.0002H39.67V23.0001ZM28.3366 33.0001L29.2846 35.0001H21.4346L20.5366 33.0001H28.3366ZM17.6366 44.3335L21.4253 36.3335H29.2833L25.4946 44.3335H17.6366ZM37.492 44.3335H34.0567L35.6033 41.0622C35.7609 40.7294 35.6188 40.3318 35.286 40.1742C34.9532 40.0166 34.5556 40.1587 34.398 40.4915L32.5814 44.3336H26.9701L30.7587 36.3336H41.2834L37.492 44.3335ZM16.9366 25.0001L16.0366 23.0001H23.9166L24.8626 25.0001H16.9366ZM16.0566 21.6668L17.6353 18.3334H24.3366C24.7048 18.3334 25.0033 18.035 25.0033 17.6668C25.0033 17.2986 24.7048 17.0001 24.3366 17.0001H18.27L19.8487 13.6668H33.95L32.4033 16.9381C32.2462 17.2708 32.3882 17.6679 32.7207 17.8254C32.8095 17.8691 32.9071 17.8919 33.006 17.8921C33.2627 17.8912 33.4961 17.7428 33.606 17.5108L35.4253 13.6668H39.7033L35.9146 21.6668H16.0566Z" fill="white"/>
</svg>
