<svg width="50" height="50" viewBox="0 0 50 50" fill="none" xmlns="http://www.w3.org/2000/svg">
<g clip-path="url(#clip0)">
<path d="M33.5135 36.2683C33.5135 35.8638 33.1856 35.5359 32.7811 35.5359C32.1041 35.5359 12.4765 35.5359 11.785 35.5359C11.6504 35.5359 11.5408 35.4263 11.5408 35.2917V31.1399C11.5408 28.4641 12.3239 25.8795 13.8054 23.6653C14.0303 23.3291 13.9401 22.8742 13.6039 22.6493C13.2678 22.4245 12.8128 22.5145 12.5879 22.8507C10.9445 25.3068 10.076 28.1731 10.076 31.1399V35.2917C10.076 36.234 10.8427 37.0007 11.785 37.0007H19.1104C19.7061 39.7418 22.1305 41.736 25 41.736C27.8695 41.736 30.294 39.7418 30.8897 37.0007H32.7811C33.1856 37.0007 33.5135 36.6728 33.5135 36.2683ZM25 40.2711C22.9383 40.2711 21.1792 38.9123 20.6197 37.0007H29.3802C28.8208 38.9123 27.0617 40.2711 25 40.2711Z" fill="white"/>
<path d="M35.0375 20.0954C35.0374 20.0953 35.0372 20.0951 35.037 20.095C33.3567 18.5673 31.3728 17.4596 29.2353 16.828V14.9109C29.2353 13.5153 28.0999 12.38 26.7043 12.38H25.7324V0.732422C25.7324 0.32793 25.4045 0 25 0C24.5955 0 24.2676 0.32793 24.2676 0.732422V12.38H23.2957C21.9001 12.38 20.7647 13.5153 20.7647 14.9109V16.8276C18.6101 17.4642 16.612 18.5846 14.9227 20.1318C14.6244 20.4051 14.604 20.8684 14.8772 21.1667C15.1505 21.4649 15.6138 21.4854 15.9121 21.2121C21.0492 16.5068 28.9182 16.5126 34.05 21.1775C34.0505 21.178 34.051 21.1784 34.0516 21.1789C36.8526 23.7259 38.4592 27.3565 38.4592 31.1398V35.2917C38.4592 35.4263 38.3496 35.5358 38.215 35.5358H36.199C35.7945 35.5358 35.4666 35.8638 35.4666 36.2683C35.4666 36.6728 35.7945 37.0007 36.199 37.0007H38.215C39.1573 37.0007 39.924 36.234 39.924 35.2917V31.1398C39.924 26.9449 38.1429 22.9193 35.0375 20.0954ZM27.7704 16.4731C26.0133 16.1433 24.1253 16.1172 22.2296 16.4731V14.9109C22.2296 14.323 22.7078 13.8448 23.2957 13.8448H26.7043C27.2922 13.8448 27.7704 14.323 27.7704 14.9109V16.4731Z" fill="white"/>
<path d="M25 44.1362C24.5955 44.1362 24.2676 44.4641 24.2676 44.8686V49.2675C24.2676 49.672 24.5955 49.9999 25 49.9999C25.4045 49.9999 25.7324 49.672 25.7324 49.2675V44.8686C25.7324 44.4641 25.4045 44.1362 25 44.1362Z" fill="white"/>
<path d="M33.4158 41.4323C33.1299 41.146 32.6662 41.1459 32.3799 41.4318C32.0938 41.7177 32.0935 42.1814 32.3794 42.4676L35.4869 45.5782C35.7725 45.8641 36.2363 45.8648 36.5227 45.5787C36.8088 45.2927 36.8091 44.8291 36.5232 44.5428L33.4158 41.4323Z" fill="white"/>
<path d="M16.5843 41.4323L13.4769 44.5428C13.191 44.829 13.1912 45.2927 13.4774 45.5787C13.7635 45.8644 14.2271 45.8644 14.5132 45.5782L17.6206 42.4676C17.9065 42.1814 17.9063 41.7177 17.6201 41.4318C17.334 41.1459 16.8702 41.146 16.5843 41.4323Z" fill="white"/>
</g>
<defs>
<clipPath id="clip0">
<rect width="50" height="50" fill="white"/>
</clipPath>
</defs>
</svg>
