<svg width="50" height="50" viewBox="0 0 50 50" fill="none" xmlns="http://www.w3.org/2000/svg">
<g clip-path="url(#clip0)">
<path d="M48.6952 10.0326C49.4147 10.0326 50 9.44732 50 8.72784V5.7786C50 5.05912 49.4147 4.47378 48.6952 4.47378H45.7459C45.0265 4.47378 44.4411 5.05912 44.4411 5.7786V6.52045H42.0197C41.615 6.52045 41.2869 6.84853 41.2869 7.25322C41.2869 7.6579 41.615 7.98598 42.0197 7.98598H44.4411V8.72784C44.4411 9.44732 45.0265 10.0326 45.7459 10.0326H46.4878V36.9155H45.7459C45.0265 36.9155 44.4411 37.5009 44.4411 38.2203V39.3998H38.6857L32.0873 7.98598H38.8968C39.3015 7.98598 39.6296 7.6579 39.6296 7.25322C39.6296 6.84853 39.3015 6.52045 38.8968 6.52045H31.7794L31.0367 2.98441C30.8384 2.07031 30.0157 1.40691 29.0804 1.40691H20.8218C19.8865 1.40691 19.0638 2.07041 18.8645 2.9891L18.1228 6.52045H5.55887V5.7786C5.55887 5.05912 4.97353 4.47378 4.25405 4.47378H1.30481C0.585334 4.47378 0 5.05912 0 5.7786V8.72774C0 9.44722 0.585334 10.0326 1.30481 10.0326H2.04667V36.9154H1.30481C0.585334 36.9155 0 37.5009 0 38.2203V41.1696C0 41.8891 0.585334 42.4744 1.30481 42.4744H4.25405C4.97353 42.4744 5.55887 41.8891 5.55887 41.1696V40.8654H10.9087L10.5083 42.7721H8.75646C8.01149 42.7721 7.40534 43.3782 7.40534 44.1232V47.2422C7.40534 47.9871 8.01149 48.5933 8.75646 48.5933H22.048C22.793 48.5933 23.3991 47.9871 23.3991 47.2422V44.1232C23.3991 43.3782 22.793 42.7721 22.048 42.7721H20.4346L20.7472 40.8654H29.1553L29.4679 42.7721H27.8545C27.1095 42.7721 26.5034 43.3782 26.5034 44.1232V47.2422C26.5034 47.9871 27.1095 48.5933 27.8545 48.5933H41.146C41.891 48.5933 42.4972 47.9871 42.4972 47.2422V44.1232C42.4972 43.3782 41.891 42.7721 41.146 42.7721H39.3941L38.9936 40.8654H44.4412V41.1696C44.4412 41.8891 45.0266 42.4744 45.746 42.4744H48.6953C49.4148 42.4744 50.0001 41.8891 50.0001 41.1696V38.2203C50.0001 37.5009 49.4148 36.9155 48.6953 36.9155H47.9534V10.0326H48.6952ZM20.2977 3.29491C20.3508 3.05007 20.5712 2.87235 20.8218 2.87235H29.0804C29.3309 2.87235 29.5513 3.05007 29.6035 3.29022L30.2819 6.52035H19.6203L20.2977 3.29491ZM1.46553 5.93932H4.09333V8.56712H1.46553V5.93932ZM4.09333 41.0089H1.46553V38.3811H4.09333V41.0089ZM21.9335 44.2375V47.1277H8.87087V44.2375H11.1032C11.4498 44.2375 11.749 43.9946 11.8203 43.6554L13.9135 33.6902C13.9967 33.2941 13.743 32.9056 13.347 32.8225C12.9513 32.7394 12.5625 32.9929 12.4793 33.389L11.2167 39.3998H5.55887V38.2203C5.55887 37.5009 4.97353 36.9155 4.25405 36.9155H3.5122V10.0326H4.25405C4.97353 10.0326 5.55887 9.44732 5.55887 8.72784V7.98598H17.8149L13.1212 30.3318C13.038 30.7278 13.2917 31.1163 13.6877 31.1995C14.0842 31.2829 14.4722 31.029 14.5554 30.633L19.3123 7.98598H30.5897L37.188 39.3998H30.4L29.9164 36.4488C29.8584 36.0946 29.5522 35.8345 29.1933 35.8345H20.709C20.35 35.8345 20.0439 36.0945 19.9859 36.4488L18.8487 43.3862C18.8139 43.5985 18.8741 43.8153 19.0133 43.9792C19.1526 44.1431 19.3568 44.2376 19.5718 44.2376H21.9335V44.2375ZM20.9873 39.3998L21.3314 37.3001H28.5709L28.915 39.3998H20.9873ZM38.082 43.6554C38.1532 43.9946 38.4525 44.2375 38.7991 44.2375H41.0314V47.1277H27.9688V44.2375H30.3304C30.5454 44.2375 30.7496 44.143 30.8889 43.9791C31.0281 43.8152 31.0883 43.5985 31.0535 43.3861L30.6403 40.8652H37.496L38.082 43.6554ZM48.5345 41.0089H45.9067V38.3811H48.5345V41.0089ZM45.9067 5.93932H48.5345V8.56712H45.9067V5.93932Z" fill="white"/>
<path d="M22.0549 30.5924H27.8473C28.0669 30.5924 28.2749 30.494 28.4141 30.3241C28.5533 30.1542 28.609 29.9309 28.5658 29.7155L28.0046 26.9184C27.9249 26.5217 27.5389 26.2646 27.142 26.3442C26.7452 26.4238 26.488 26.81 26.5677 27.2068L26.9529 29.1269H22.9493L24.9511 19.1504L25.9522 24.14C26.0318 24.5368 26.4176 24.7936 26.8149 24.7143C27.2116 24.6347 27.4688 24.2484 27.3892 23.8517L26.0031 16.9442C25.9013 16.4368 25.4687 16.0823 24.9511 16.0823C24.4335 16.0823 24.0008 16.4367 23.899 16.9442L21.3364 29.7156C21.2932 29.9309 21.3488 30.1542 21.488 30.3241C21.6273 30.494 21.8354 30.5924 22.0549 30.5924Z" fill="white"/>
</g>
<defs>
<clipPath id="clip0">
<rect width="50" height="50" fill="white"/>
</clipPath>
</defs>
</svg>
