<svg width="50" height="50" viewBox="0 0 50 50" fill="none" xmlns="http://www.w3.org/2000/svg">
<g clip-path="url(#clip0)">
<path d="M26.6602 9.76562C27.1992 9.76562 27.6367 9.32808 27.6367 8.78906C27.6367 8.25005 27.1992 7.8125 26.6602 7.8125C26.1211 7.8125 25.6836 8.25005 25.6836 8.78906C25.6836 9.32808 26.1211 9.76562 26.6602 9.76562Z" fill="white"/>
<path d="M25.045 20.2774C25.489 20.5814 26.0971 20.4693 26.4023 20.0234C27.5475 18.351 28.3081 16.4898 28.6625 14.4917C28.7823 13.8203 28.8326 13.1451 28.8132 12.4844C28.7972 11.9454 28.3432 11.5181 27.8076 11.5376C27.2686 11.5536 26.8448 12.0037 26.8608 12.5427C26.8765 13.0695 26.836 13.6101 26.7399 14.1495C26.4336 15.8733 25.7782 17.4782 24.791 18.9201C24.4862 19.3649 24.5998 19.9726 25.045 20.2774Z" fill="white"/>
<path d="M7.51947 3.90625C7.1811 3.90625 6.86677 4.08173 6.68862 4.36935C6.51086 4.65736 6.49484 5.01671 6.6459 5.3196C9.28338 10.593 10.4492 13.1523 10.4492 18.5547V26.3672C10.4492 30.8853 12.8219 34.8587 16.3863 37.1094H13.3788C12.8394 37.1094 12.4023 37.5465 12.4023 38.0859V41.9922C12.4023 42.5316 12.8394 42.9688 13.3788 42.9688H14.3554V49.0234C14.3554 49.5628 14.7926 50 15.332 50H34.8632C35.4026 50 35.8398 49.5628 35.8398 49.0234V42.9688H36.8163C37.3557 42.9688 37.7929 42.5316 37.7929 41.9922V38.0859C37.7929 37.5465 37.3557 37.1094 36.8163 37.1094H36.1907C36.7191 36.7592 37.1986 36.3659 37.6209 35.9322C39.0708 34.4421 39.8063 32.5138 39.7475 30.3551C39.7258 29.5563 40.0195 28.8021 40.5757 28.2307C41.1319 27.6588 41.8781 27.3438 42.6757 27.3438C43.0141 27.3438 43.3284 27.1687 43.5065 26.8806C43.6843 26.593 43.7007 26.2333 43.5493 25.9304L42.5071 23.8457C42.5071 23.8457 42.5071 23.8457 42.5071 23.8453C41.7785 22.3892 40.3144 21.4844 38.6867 21.4844C37.1909 21.4844 35.7852 22.282 35.0189 23.5657C35.0162 23.5699 35.0147 23.5744 35.012 23.5786C35.0093 23.5832 35.0063 23.5878 35.0032 23.5924L33.4712 26.3531C32.7132 24.638 30.9966 23.4375 29.0038 23.4375C28.934 23.4375 28.8642 23.4406 28.7948 23.4436L29.6253 22.2301C32.8506 17.5167 33.818 11.7699 31.1893 6.78635C28.9813 2.60048 24.6372 0 19.8516 0H17.2851C16.925 0 16.5939 0.198364 16.4241 0.515747C16.254 0.833511 16.2727 1.2188 16.4726 1.51863L17.1474 2.52991C18.9529 5.23834 19.1417 7.85179 18.7942 10.1162C16.4493 6.40602 12.2867 3.90625 7.51947 3.90625ZM12.4023 26.3672V18.5547C12.4023 13.1107 11.1968 10.1215 9.15559 5.97878C13.1206 6.56013 16.5611 9.22165 18.0805 12.989C17.0741 16.0778 15.5269 18.9068 15.1351 21.4878V21.4882C14.7765 23.8499 14.8685 26.2661 15.4014 28.4763C15.9595 30.7919 17.0074 32.8915 18.4322 34.549C19.234 35.482 20.148 36.2755 21.1604 36.9251C16.1819 35.9913 12.4023 31.6128 12.4023 26.3672ZM16.3085 42.9688H33.8866V48.0469H16.3085V42.9688ZM35.8398 39.0625V41.0156C34.8941 41.0156 15.874 41.0156 14.3554 41.0156V39.0625H35.8398ZM29.0038 25.3906C31.055 25.3906 32.4561 27.4464 31.7516 29.3369C31.3297 30.4813 30.2253 31.25 29.0038 31.25C27.3883 31.25 26.0742 29.9358 26.0742 28.3203C26.0742 26.7033 27.3933 25.3906 29.0038 25.3906ZM19.8516 1.95312C23.9105 1.95312 27.5928 4.15421 29.4616 7.6973C31.6032 11.7577 31.0752 16.6527 28.0132 21.1273C27.8823 21.3188 25.1807 25.2663 25.0514 25.4555C24.443 26.2928 24.121 27.2823 24.121 28.3203C24.121 31.0127 26.3114 33.2031 29.0038 33.2031C30.9066 33.2031 32.6392 32.0824 33.4312 30.3802C33.604 30.2021 33.435 30.4184 36.7004 24.5598C37.1173 23.8674 37.8772 23.4375 38.6867 23.4375C39.5702 23.4375 40.3648 23.9288 40.7603 24.7192L41.2074 25.6134C40.4453 25.8526 39.7502 26.2787 39.1757 26.8688C38.2491 27.8214 37.7586 29.0783 37.7952 30.4085C37.8398 32.0507 37.31 33.4511 36.2209 34.5699C34.6504 36.1839 32.0201 37.1094 29.0038 37.1094C25.2128 37.1094 22.0691 35.7838 19.9134 33.2756C17.4693 30.4329 16.405 26.1356 17.0661 21.7812C17.4098 19.5156 18.922 16.7084 19.9348 13.6024C20.0565 13.4338 20.1221 13.2286 20.1194 13.0173C20.9579 10.236 21.6621 6.18935 19.0948 1.95312H19.8516Z" fill="white"/>
</g>
<defs>
<clipPath id="clip0">
<rect width="50" height="50" fill="white"/>
</clipPath>
</defs>
</svg>
