<svg width="45" height="45" viewBox="0 0 45 45" fill="none" xmlns="http://www.w3.org/2000/svg">
<path d="M42.3633 1.75781C41.2176 1.75781 40.2405 2.49252 39.8776 3.51562H33.3984C33.3984 1.57722 31.8212 0 29.8828 0C27.9406 0 26.3672 1.5731 26.3672 3.51562H22.8516C22.8516 1.57722 21.2743 0 19.3359 0C17.3938 0 15.8203 1.5731 15.8203 3.51562H12.3047C12.3047 1.57722 10.7275 0 8.78906 0C6.84689 0 5.27344 1.5731 5.27344 3.51562H0.878906C0.393448 3.51562 0 3.90907 0 4.39453C0 4.87999 0.393448 5.27241 0.878906 5.27241H5.27344C5.27344 6.24195 4.48483 7.03125 3.51562 7.03125H0.878906C0.393448 7.03125 0 7.4247 0 7.91016V20.7422C0 21.2276 0.393448 21.6211 0.878906 21.6211C1.36436 21.6211 1.75781 21.2276 1.75781 20.7422V8.78906H3.51562C5.45403 8.78906 7.03125 7.21184 7.03125 5.27344V3.51562C7.03125 2.54471 7.81815 1.75781 8.78906 1.75781C9.75826 1.75781 10.5469 2.54642 10.5469 3.51562V5.27344C10.5469 7.21561 12.12 8.78906 14.0625 8.78906C16.0009 8.78906 17.5781 7.21184 17.5781 5.27344V3.51562C17.5781 2.54471 18.365 1.75781 19.3359 1.75781C20.3051 1.75781 21.0938 2.54642 21.0938 3.51562V5.27344C21.0938 7.21561 22.6669 8.78906 24.6094 8.78906C26.5478 8.78906 28.125 7.21184 28.125 5.27344V3.51562C28.125 2.54471 28.9119 1.75781 29.8828 1.75781C30.852 1.75781 31.6406 2.54642 31.6406 3.51562V41.4844C31.6406 42.4553 30.8537 43.2422 29.8828 43.2422C28.9136 43.2422 28.125 42.4536 28.125 41.4844C28.125 38.9153 28.125 22.0348 28.125 18.457C28.125 17.9716 27.7316 17.5781 27.2461 17.5781C26.7606 17.5781 26.3672 17.9716 26.3672 18.457V36.6816C25.8385 36.375 25.2366 36.2109 24.6094 36.2109C23.9694 36.2109 23.3689 36.3836 22.8516 36.684V11.4258C22.8516 10.9403 22.4581 10.5469 21.9727 10.5469C21.4872 10.5469 21.0938 10.9403 21.0938 11.4258V41.4844C21.0938 42.4553 20.3069 43.2422 19.3359 43.2422C18.3667 43.2422 17.5781 42.4536 17.5781 41.4844C17.5781 38.9153 17.5781 22.0348 17.5781 18.457C17.5781 17.9716 17.1847 17.5781 16.6992 17.5781C16.2138 17.5781 15.8203 17.9716 15.8203 18.457V36.6816C15.2916 36.375 14.6898 36.2109 14.0625 36.2109C13.4225 36.2109 12.8221 36.3836 12.3047 36.684V11.4258C12.3047 10.9403 11.9112 10.5469 11.4258 10.5469C10.9403 10.5469 10.5469 10.9403 10.5469 11.4258V41.4844C10.5469 42.4553 9.75998 43.2422 8.78906 43.2422C7.81986 43.2422 7.03125 42.4536 7.03125 41.4844C7.03125 38.9153 7.03125 22.0348 7.03125 18.457C7.03125 17.9716 6.6378 17.5781 6.15234 17.5781C5.66689 17.5781 5.27344 17.9716 5.27344 18.457V36.684C4.75605 36.3836 4.15558 36.2109 3.51562 36.2109H1.75781V27.7734C1.75781 27.288 1.36436 26.8945 0.878906 26.8945C0.393448 26.8945 0 27.288 0 27.7734V37.0898C0 37.5753 0.393448 37.9688 0.878906 37.9688H3.51562C4.48483 37.9688 5.27344 38.7574 5.27344 39.7266V41.4844C5.27344 43.4228 6.85066 45 8.78906 45C10.7312 45 12.3047 43.4269 12.3047 41.4844V39.7266C12.3047 38.7574 13.0933 37.9688 14.0625 37.9688C15.0331 37.9688 15.8203 38.7556 15.8203 39.7266V41.4844C15.8203 43.4228 17.3975 45 19.3359 45C21.2781 45 22.8516 43.4269 22.8516 41.4844V39.7266C22.8516 38.7574 23.6402 37.9688 24.6094 37.9688C25.5799 37.9688 26.3672 38.7556 26.3672 39.7266V41.4844C26.3672 43.4228 27.9444 45 29.8828 45C31.825 45 33.3984 43.4269 33.3984 41.4844V5.27344H39.8776C40.2405 6.29654 41.2176 7.03125 42.3633 7.03125C43.8173 7.03125 45 5.8485 45 4.39453C45 2.94056 43.8173 1.75781 42.3633 1.75781ZM14.0625 7.03125C13.0919 7.03125 12.3047 6.24332 12.3047 5.27241H15.8203C15.8203 6.24195 15.0317 7.03125 14.0625 7.03125ZM24.6094 7.03125C23.6388 7.03125 22.8516 6.24332 22.8516 5.27241H26.3672C26.3672 6.24195 25.5786 7.03125 24.6094 7.03125ZM42.3633 5.27344C41.8785 5.27344 41.4844 4.8793 41.4844 4.39453C41.4844 3.90976 41.8785 3.51562 42.3633 3.51562C42.8481 3.51562 43.2422 3.90976 43.2422 4.39453C43.2422 4.8793 42.8481 5.27344 42.3633 5.27344Z" fill="white"/>
<path d="M1.75781 24.2578C1.75781 24.7433 1.36436 25.1367 0.878906 25.1367C0.393448 25.1367 0 24.7433 0 24.2578C0 23.7724 0.393448 23.3789 0.878906 23.3789C1.36436 23.3789 1.75781 23.7724 1.75781 24.2578Z" fill="white"/>
</svg>
