<svg width="124" height="56" viewBox="0 0 124 56" fill="none" xmlns="http://www.w3.org/2000/svg">
<path d="M34.4375 0.4375H121.062C121.585 0.4375 122.085 0.64492 122.455 1.01413C122.824 1.38334 123.031 1.8841 123.031 2.40625V53.5938C123.031 54.1159 122.824 54.6167 122.455 54.9859C122.085 55.3551 121.585 55.5625 121.062 55.5625H34.4375C33.9154 55.5625 33.4146 55.3551 33.0454 54.9859C32.6762 54.6167 32.4688 54.1159 32.4688 53.5938V2.40625C32.4688 1.8841 32.6762 1.38334 33.0454 1.01413C33.4146 0.64492 33.9154 0.4375 34.4375 0.4375ZM88.6451 31.4748L119.094 50.0835V6.56228L88.6451 31.4748ZM85.4143 34.1169L78.9962 39.3676C78.6446 39.6551 78.2043 39.8122 77.75 39.8122C77.2957 39.8122 76.8554 39.6551 76.5038 39.3676L70.0857 34.1169L41.4364 51.625H114.064L85.4143 34.1169ZM66.8549 31.4748L36.4062 6.56228V50.0835L66.8549 31.4748ZM39.95 4.375L77.75 35.3001L115.55 4.375H39.95Z" fill="#E0DACC"/>
<path d="M89.5625 6.34375H103.344C103.866 6.34375 104.367 6.55117 104.736 6.92038C105.105 7.28959 105.312 7.79035 105.312 8.3125C105.312 8.83465 105.105 9.33541 104.736 9.70462C104.367 10.0738 103.866 10.2812 103.344 10.2812H89.5625C89.0404 10.2812 88.5396 10.0738 88.1704 9.70462C87.8012 9.33541 87.5938 8.83465 87.5938 8.3125C87.5938 7.79035 87.8012 7.28959 88.1704 6.92038C88.5396 6.55117 89.0404 6.34375 89.5625 6.34375Z" fill="#E0DACC"/>
<path d="M81.6875 6.34375H83.6562C84.1784 6.34375 84.6792 6.55117 85.0484 6.92038C85.4176 7.28959 85.625 7.79035 85.625 8.3125C85.625 8.83465 85.4176 9.33541 85.0484 9.70462C84.6792 10.0738 84.1784 10.2812 83.6562 10.2812H81.6875C81.1654 10.2812 80.6646 10.0738 80.2954 9.70462C79.9262 9.33541 79.7188 8.83465 79.7188 8.3125C79.7188 7.79035 79.9262 7.28959 80.2954 6.92038C80.6646 6.55117 81.1654 6.34375 81.6875 6.34375Z" fill="#E0DACC"/>
<path d="M28.5312 6.34375H2.9375C2.41536 6.34375 1.91459 6.13633 1.54538 5.76712C1.17617 5.39791 0.96875 4.89715 0.96875 4.375C0.96875 3.85285 1.17617 3.35209 1.54538 2.98288C1.91459 2.61367 2.41536 2.40625 2.9375 2.40625H28.5312C29.0534 2.40625 29.5542 2.61367 29.9234 2.98288C30.2926 3.35209 30.5 3.85285 30.5 4.375C30.5 4.89715 30.2926 5.39791 29.9234 5.76712C29.5542 6.13633 29.0534 6.34375 28.5312 6.34375Z" fill="#E0DACC"/>
<path d="M28.5312 14.2188H18.6875C18.1654 14.2188 17.6646 14.0113 17.2954 13.6421C16.9262 13.2729 16.7188 12.7721 16.7188 12.25C16.7188 11.7279 16.9262 11.2271 17.2954 10.8579C17.6646 10.4887 18.1654 10.2812 18.6875 10.2812H28.5312C29.0534 10.2812 29.5542 10.4887 29.9234 10.8579C30.2926 11.2271 30.5 11.7279 30.5 12.25C30.5 12.7721 30.2926 13.2729 29.9234 13.6421C29.5542 14.0113 29.0534 14.2188 28.5312 14.2188Z" fill="#E0DACC"/>
<path d="M12.7812 10.2812C13.3034 10.2812 13.8042 10.4887 14.1734 10.8579C14.5426 11.2271 14.75 11.7279 14.75 12.25C14.75 12.7721 14.5426 13.2729 14.1734 13.6421C13.8042 14.0113 13.3034 14.2188 12.7812 14.2188H10.8125C10.2904 14.2188 9.78959 14.0113 9.42038 13.6421C9.05117 13.2729 8.84375 12.7721 8.84375 12.25C8.84375 11.7279 9.05117 11.2271 9.42038 10.8579C9.78959 10.4887 10.2904 10.2812 10.8125 10.2812H12.7812Z" fill="#E0DACC"/>
<path d="M28.5312 22.0938H20.6562C20.1341 22.0938 19.6333 21.8863 19.2641 21.5171C18.8949 21.1479 18.6875 20.6471 18.6875 20.125C18.6875 19.6029 18.8949 19.1021 19.2641 18.7329C19.6333 18.3637 20.1341 18.1562 20.6562 18.1562H28.5312C29.0534 18.1562 29.5542 18.3637 29.9234 18.7329C30.2926 19.1021 30.5 19.6029 30.5 20.125C30.5 20.6471 30.2926 21.1479 29.9234 21.5171C29.5542 21.8863 29.0534 22.0938 28.5312 22.0938Z" fill="#E0DACC"/>
<path d="M2.9375 51.625H28.5312C29.0534 51.625 29.5542 51.8324 29.9234 52.2016C30.2926 52.5708 30.5 53.0716 30.5 53.5938C30.5 54.1159 30.2926 54.6167 29.9234 54.9859C29.5542 55.3551 29.0534 55.5625 28.5312 55.5625H2.9375C2.41536 55.5625 1.91459 55.3551 1.54538 54.9859C1.17617 54.6167 0.96875 54.1159 0.96875 53.5938C0.96875 53.0716 1.17617 52.5708 1.54538 52.2016C1.91459 51.8324 2.41536 51.625 2.9375 51.625Z" fill="#E0DACC"/>
<path d="M28.5312 47.6875H12.7812C12.2591 47.6875 11.7583 47.4801 11.3891 47.1109C11.0199 46.7417 10.8125 46.2409 10.8125 45.7188C10.8125 45.1966 11.0199 44.6958 11.3891 44.3266C11.7583 43.9574 12.2591 43.75 12.7812 43.75H28.5312C29.0534 43.75 29.5542 43.9574 29.9234 44.3266C30.2926 44.6958 30.5 45.1966 30.5 45.7188C30.5 46.2409 30.2926 46.7417 29.9234 47.1109C29.5542 47.4801 29.0534 47.6875 28.5312 47.6875Z" fill="#E0DACC"/>
<path d="M28.5312 39.8125H26.5625C26.0404 39.8125 25.5396 39.6051 25.1704 39.2359C24.8012 38.8667 24.5938 38.3659 24.5938 37.8438C24.5938 37.3216 24.8012 36.8208 25.1704 36.4516C25.5396 36.0824 26.0404 35.875 26.5625 35.875H28.5312C29.0534 35.875 29.5542 36.0824 29.9234 36.4516C30.2926 36.8208 30.5 37.3216 30.5 37.8438C30.5 38.3659 30.2926 38.8667 29.9234 39.2359C29.5542 39.6051 29.0534 39.8125 28.5312 39.8125Z" fill="#E0DACC"/>
</svg>
