<svg width="51" height="73" viewBox="0 0 51 73" fill="none" xmlns="http://www.w3.org/2000/svg">
<path d="M25.5 0C11.4394 0 0 11.3831 0 25.3745C0 42.9601 25.5251 73 25.5251 73C25.5251 73 51 42.0953 51 25.3745C51 11.3831 39.561 0 25.5 0ZM33.1939 32.8041C31.0724 34.9147 28.2864 35.9702 25.5 35.9702C22.714 35.9702 19.9272 34.9147 17.8066 32.8041C13.564 28.5829 13.564 21.7142 17.8066 17.4926C19.8609 15.4474 22.5936 14.3211 25.5 14.3211C28.4064 14.3211 31.1387 15.4479 33.1939 17.4926C37.4364 21.7142 37.4364 28.5829 33.1939 32.8041Z" fill="#36544F"/>
</svg>
