<svg width="21" height="19" viewBox="0 0 21 19" fill="none" xmlns="http://www.w3.org/2000/svg">
<path d="M20.1709 0.39968C19.7865 0.03344 19.1637 0.03344 18.7794 0.39968L10.6183 8.17439L2.45722 0.399768C2.07278 0.0335285 1.45003 0.0335285 1.06568 0.399768C0.681233 0.766008 0.681233 1.35927 1.06568 1.72542L9.22672 9.50004L1.06568 17.2747C0.681233 17.6409 0.681233 18.2342 1.06568 18.6003C1.25785 18.7834 1.50972 18.875 1.76149 18.875C2.01327 18.875 2.26504 18.7834 2.45731 18.6003L10.6183 10.8257L18.7793 18.6003C18.9715 18.7834 19.2233 18.875 19.4751 18.875C19.7269 18.875 19.9787 18.7834 20.1709 18.6003C20.5554 18.2341 20.5554 17.6408 20.1709 17.2747L12.0098 9.50004L20.1708 1.72542C20.5553 1.35918 20.5553 0.76592 20.1709 0.39968Z" fill="white"/>
</svg>
