<svg width="86" height="50" viewBox="0 0 86 50" fill="none" xmlns="http://www.w3.org/2000/svg">
<path d="M49.111 17.5183C49.1107 17.6317 49.186 17.7404 49.3206 17.8206L61.7347 25.2033L49.3206 32.586C49.0451 32.7556 49.0531 33.0259 49.3382 33.1897C49.6164 33.3495 50.0574 33.3495 50.3355 33.1897L63.2564 25.5048C63.5366 25.338 63.5366 25.0678 63.2564 24.901L50.3355 17.2161C50.0548 17.0496 49.6002 17.05 49.3204 17.217C49.1863 17.297 49.111 17.4054 49.111 17.5183Z" fill="#405A26"/>
<path d="M0.755623 25.2008C0.755623 25.6079 1.33355 25.938 2.0464 25.938L61.4204 25.938C62.1333 25.938 62.7112 25.6079 62.7112 25.2008C62.7112 24.7937 62.1333 24.4636 61.4204 24.4636L2.04628 24.4636C1.33355 24.4637 0.755623 24.7937 0.755623 25.2008Z" fill="#405A26"/>
<rect y="1.40198" width="32.9687" height="32.9687" transform="matrix(0.713173 0.700988 -0.713173 0.700988 61.0851 0.7112)" stroke="#405A26" stroke-width="2"/>
</svg>
