<svg width="72" height="43" viewBox="0 0 72 43" fill="none" xmlns="http://www.w3.org/2000/svg">
<path d="M41.1873 15.4055C41.187 15.5028 41.2506 15.5961 41.3642 15.665L51.8385 22.0024L41.3641 28.3398C41.1317 28.4854 41.1384 28.7174 41.379 28.8581C41.6137 28.9952 41.9858 28.9952 42.2205 28.8581L53.1225 22.2612C53.3589 22.118 53.3589 21.8861 53.1225 21.7429L42.2205 15.146C41.9836 15.0031 41.6001 15.0035 41.3639 15.1468C41.2508 15.2155 41.1873 15.3085 41.1873 15.4055Z" fill="white" fill-opacity="0.8"/>
<path d="M0.3876 22C0.3876 22.3495 0.875225 22.6328 1.4767 22.6328L51.5735 22.6328C52.175 22.6328 52.6626 22.3495 52.6626 22C52.6626 21.6505 52.175 21.3672 51.5735 21.3672L1.47659 21.3672C0.875225 21.3672 0.3876 21.6505 0.3876 22Z" fill="white" fill-opacity="0.8"/>
<rect x="50.4468" y="2.03287" width="27.7579" height="27.7579" transform="rotate(45 50.4468 2.03287)" stroke="white" stroke-opacity="0.8" stroke-width="2"/>
</svg>
