<svg width="98" height="57" viewBox="0 0 98 57" fill="none" xmlns="http://www.w3.org/2000/svg">
<path d="M64 16.704C63.9996 16.8577 64.0993 17.0053 64.2775 17.1141L80.7078 27.1288L64.2774 37.1435C63.9128 37.3735 63.9233 37.7402 64.3007 37.9624C64.6689 38.1792 65.2526 38.1792 65.6207 37.9624L82.7218 27.5377C83.0927 27.3115 83.0927 26.9449 82.7218 26.7187L65.6207 16.294C65.2491 16.0682 64.6475 16.0687 64.2771 16.2953C64.0997 16.4038 64 16.5508 64 16.704Z" fill="#202020"/>
<path d="M0 27.625C0 27.9011 0.764908 28.125 1.70839 28.125L80.2916 28.125C81.2351 28.125 82 27.9011 82 27.625C82 27.3489 81.2351 27.125 80.2916 27.125L1.70822 27.125C0.7649 27.125 0 27.3489 0 27.625Z" fill="#202020"/>
<rect x="69.7084" y="0.707107" width="39" height="39" transform="rotate(45 69.7084 0.707107)" stroke="#202020"/>
</svg>
