<svg width="554" height="902" viewBox="0 0 554 902" fill="none" xmlns="http://www.w3.org/2000/svg">
<path d="M36.7893 368.752C27.1866 375.546 18.9581 384.098 12.5392 393.956C11.7807 395.118 11.2587 396.419 11.0029 397.783C10.7471 399.148 10.7625 400.549 11.0483 401.908C11.3341 403.266 11.8846 404.555 12.6685 405.701C13.4524 406.846 14.4543 407.826 15.617 408.585C16.7796 409.343 18.0803 409.865 19.4447 410.121C20.8091 410.377 22.2106 410.362 23.569 410.076C24.9275 409.79 26.2164 409.24 27.362 408.456C28.5077 407.672 29.4878 406.67 30.2463 405.507C35.2128 397.875 41.5811 391.253 49.0139 385.993C51.2806 384.364 52.811 381.904 53.2709 379.151C53.7309 376.397 53.083 373.574 51.4689 371.297C49.8547 369.019 47.4052 367.473 44.655 366.995C41.9048 366.517 39.0772 367.146 36.7893 368.745V368.752Z" fill="#405A26" fill-opacity="0.05"/>
<path d="M-154.651 822.027H-232.132V337.799C-232.132 337.623 -232.107 337.461 -232.107 337.288C-232.107 253.689 -167.614 185.676 -88.342 185.676C-12.1353 185.676 50.381 248.545 55.1006 327.68C32.4518 330.372 11.5746 341.27 -3.5834 358.313C-18.7413 375.356 -27.1293 397.362 -27.1611 420.17V436.686C-27.1611 439.49 -26.0474 442.178 -24.0651 444.16C-22.0828 446.143 -19.3942 447.256 -16.5908 447.256H30.4471C35.1192 464.169 50.2277 476.661 67.9224 476.661C85.6171 476.661 100.724 464.176 105.394 447.256H148.572C151.376 447.256 154.064 446.143 156.046 444.16C158.029 442.178 159.142 439.49 159.142 436.686V420.17C159.112 397.259 150.651 375.161 135.372 358.088C120.093 341.016 99.0648 330.164 76.2976 327.602C71.4864 236.833 -0.513306 164.532 -88.3403 164.532C-178.967 164.532 -252.744 241.519 -253.237 336.337C-253.255 336.582 -253.274 336.827 -253.274 337.075V822.023H-319.812C-322.616 822.023 -325.305 823.137 -327.287 825.119C-329.269 827.102 -330.383 829.79 -330.383 832.594C-330.383 835.397 -329.269 838.086 -327.287 840.068C-325.305 842.05 -322.616 843.164 -319.812 843.164H-154.651C-151.848 843.164 -149.159 842.05 -147.177 840.068C-145.195 838.086 -144.081 835.397 -144.081 832.594C-144.081 829.79 -145.195 827.102 -147.177 825.119C-149.159 823.137 -151.848 822.023 -154.651 822.023V822.027ZM67.9207 455.524C64.9912 455.477 62.1204 454.696 59.571 453.252C57.0216 451.808 54.8752 449.748 53.3283 447.26H82.5112C80.9644 449.748 78.8183 451.808 76.2693 453.252C73.7203 454.696 70.8498 455.477 67.9207 455.524ZM138 420.17V426.116H-6.02045V420.17C-6.02045 401.072 1.56631 382.756 15.0709 369.251C28.5754 355.746 46.8915 348.16 65.9898 348.16C85.0881 348.16 103.404 355.746 116.909 369.251C130.413 382.756 138 401.072 138 420.17Z" fill="#405A26" fill-opacity="0.05"/>
<path d="M486.461 658.707V588.766C486.356 576.97 481.576 565.698 473.171 557.421C464.765 549.145 453.42 544.54 441.624 544.618H248.197C242.308 544.588 236.472 545.73 231.028 547.976C225.584 550.223 220.641 553.529 216.486 557.704C215.616 558.585 214.797 559.49 214.009 560.424C209.773 555.458 204.507 551.472 198.577 548.743C192.647 546.013 186.194 544.606 179.667 544.618H-14.8589C-26.6553 544.54 -38.0007 549.145 -46.4066 557.421C-54.8125 565.698 -59.5926 576.97 -59.6982 588.766V658.907C-72.3509 660.027 -84.1333 665.818 -92.7491 675.151C-101.365 684.484 -106.197 696.691 -106.303 709.393V832.602C-106.303 835.406 -105.189 838.094 -103.207 840.077C-101.224 842.059 -98.5358 843.173 -95.7324 843.173H-13.779C-10.9756 843.173 -8.28699 842.059 -6.30468 840.077C-4.32236 838.094 -3.20871 835.406 -3.20871 832.602V818.521L433.291 818.655V832.602C433.291 835.406 434.404 838.094 436.387 840.077C438.369 842.059 441.057 843.173 443.861 843.173H525.813C528.616 843.173 531.305 842.059 533.287 840.077C535.269 838.094 536.383 835.406 536.383 832.602V709.388C536.263 696.114 530.988 683.407 521.673 673.95C512.358 664.493 499.731 659.027 486.461 658.707ZM231.461 572.618C233.656 570.421 236.266 568.682 239.139 567.503C242.013 566.323 245.092 565.727 248.197 565.748H441.624C447.815 565.665 453.786 568.04 458.228 572.353C462.67 576.666 465.221 582.565 465.32 588.756V662.447C455.913 666.188 447.837 672.655 442.13 681.018C436.423 689.381 433.345 699.258 433.291 709.382V713.522L224.559 713.47L224.585 589.82C224.534 586.64 225.115 583.482 226.296 580.529C227.476 577.575 229.232 574.887 231.461 572.618ZM-14.8589 565.748H179.663C185.856 565.665 191.829 568.042 196.271 572.357C200.714 576.672 203.263 582.574 203.36 588.766L203.407 713.464L-3.20871 713.408V709.389C-3.27478 698.663 -6.72862 688.232 -13.077 679.586C-19.4253 670.941 -28.3434 664.522 -38.5576 661.247V588.766C-38.4588 582.574 -35.9084 576.675 -31.4658 572.36C-27.0232 568.046 -21.051 565.67 -14.8589 565.753V565.748ZM-24.3493 822.021H-85.1621V709.388C-84.9447 701.468 -81.6458 693.945 -75.9673 688.421C-70.2887 682.896 -62.6785 679.804 -54.7557 679.804C-46.8329 679.804 -39.2228 682.896 -33.5442 688.421C-27.8656 693.945 -24.5667 701.468 -24.3493 709.388V822.021ZM-3.20871 797.37V734.547L213.972 734.607H213.988L433.289 734.668V797.509L-3.20871 797.37ZM515.242 822.027H454.431V709.388C454.64 701.462 457.935 693.932 463.615 688.4C469.294 682.869 476.909 679.773 484.837 679.773C492.765 679.773 500.379 682.869 506.059 688.4C511.738 693.932 515.033 701.462 515.242 709.388V822.027Z" fill="#405A26" fill-opacity="0.05"/>
</svg>
