<svg width="40" height="40" viewBox="0 0 40 40" fill="none" xmlns="http://www.w3.org/2000/svg">
<path d="M29.1724 0H10.8276C4.85718 0 0 4.85718 0 10.8276V29.1727C0 35.1428 4.85718 40 10.8276 40H29.1727C35.1428 40 40 35.1428 40 29.1727V10.8276C40 4.85718 35.1428 0 29.1724 0V0ZM37.655 29.1727C37.655 33.8498 33.8498 37.655 29.1724 37.655H10.8276C6.15021 37.655 2.34497 33.8498 2.34497 29.1727V10.8276C2.34497 6.15021 6.15021 2.34497 10.8276 2.34497H29.1727C33.8498 2.34497 37.655 6.15021 37.655 10.8276V29.1727Z" fill="#202020"/>
<path d="M20 9.06274C13.9691 9.06274 9.06281 13.9691 9.06281 19.9999C9.06281 26.0308 13.9691 30.9371 20 30.9371C26.0309 30.9371 30.9372 26.0308 30.9372 19.9999C30.9372 13.9691 26.0309 9.06274 20 9.06274ZM20 28.5922C15.2625 28.5922 11.4078 24.7378 11.4078 19.9999C11.4078 15.2624 15.2625 11.4077 20 11.4077C24.7379 11.4077 28.5922 15.2624 28.5922 19.9999C28.5922 24.7378 24.7379 28.5922 20 28.5922Z" fill="#202020"/>
<path d="M31.1987 5.17871C29.4165 5.17871 27.9669 6.6286 27.9669 8.41052C27.9669 10.1928 29.4165 11.6426 31.1987 11.6426C32.981 11.6426 34.4308 10.1928 34.4308 8.41052C34.4308 6.6283 32.981 5.17871 31.1987 5.17871ZM31.1987 9.29736C30.7098 9.29736 30.3119 8.89942 30.3119 8.41052C30.3119 7.92133 30.7098 7.52368 31.1987 7.52368C31.6879 7.52368 32.0859 7.92133 32.0859 8.41052C32.0859 8.89942 31.6879 9.29736 31.1987 9.29736Z" fill="#202020"/>
</svg>
