<svg width="23" height="23" viewBox="0 0 23 23" fill="none" xmlns="http://www.w3.org/2000/svg">
<path d="M22.6225 0.377224C22.1748 -0.0704027 21.4497 -0.0704027 21.0022 0.377224L11.4998 9.87965L1.99747 0.377332C1.54984 -0.0702946 0.824744 -0.0702946 0.377224 0.377332C-0.0704028 0.824959 -0.0704028 1.55006 0.377224 1.99758L9.87955 11.4999L0.377224 21.0022C-0.0704028 21.4498 -0.0704028 22.1749 0.377224 22.6224C0.600984 22.8462 0.894247 22.9581 1.1874 22.9581C1.48056 22.9581 1.77371 22.8462 1.99758 22.6224L11.4998 13.1201L21.0021 22.6224C21.2259 22.8462 21.5191 22.9581 21.8123 22.9581C22.1054 22.9581 22.3986 22.8462 22.6225 22.6224C23.0701 22.1748 23.0701 21.4497 22.6225 21.0022L13.12 11.4999L22.6224 1.99758C23.07 1.54995 23.07 0.82485 22.6225 0.377224Z" fill="#D5D2D5"/>
</svg>
