<svg width="35" height="35" viewBox="0 0 35 35" fill="none" xmlns="http://www.w3.org/2000/svg">
<g clip-path="url(#clip0)">
<path d="M33.423 25.4949L28.233 21.0817C28.209 21.0614 28.1836 21.0427 28.1572 21.0259C26.7956 20.1591 25.0473 20.3511 23.9058 21.4924L21.0761 24.3218C20.8801 24.5181 20.5877 24.576 20.3314 24.4703C17.1361 23.1485 14.5112 21.1586 12.5296 18.5564C11.0185 16.5721 10.4737 14.9953 10.4019 14.7731C10.3933 14.7256 10.3797 14.6783 10.3605 14.6321C10.2545 14.3758 10.3124 14.0839 10.509 13.8879L13.3384 11.0577C14.4799 9.91615 14.6717 8.16791 13.8049 6.80633C13.798 6.79538 13.7907 6.7847 13.7833 6.77402L10.0353 1.56562C8.85606 -0.263793 6.28751 -0.540167 4.74595 1.00112L4.17932 1.56776C4.17905 1.56829 4.17852 1.56883 4.17798 1.56909L2.15497 3.5921C-0.257366 6.00471 -0.652034 9.62989 1.01396 14.0765C2.44096 17.8854 5.29763 22.0539 9.05766 25.814C12.9066 29.6629 17.1879 32.5725 21.1127 34.0067C24.9974 35.4259 29.1297 35.6008 32.0544 32.6758L33.9624 30.7682C35.497 29.2333 35.2291 26.6815 33.423 25.4949ZM27.386 22.1557L32.5714 26.5651C32.5952 26.5854 32.6205 26.6041 32.647 26.6209C33.7546 27.3262 33.9223 28.8749 32.9955 29.8015L32.8539 29.9433L24.0097 23.3215L24.8724 22.459C25.5467 21.7845 26.5742 21.6625 27.386 22.1557ZM8.89317 2.31677C8.90012 2.32772 8.90733 2.33867 8.9148 2.34908L12.6612 7.55561C13.1702 8.37031 13.0524 9.41039 12.3718 10.091L11.5357 10.9274L5.55211 2.12825L5.71259 1.96777C6.64319 1.03717 8.19062 1.21314 8.89317 2.31677ZM21.5816 32.7225C17.84 31.3553 13.7355 28.5585 10.0243 24.8473C6.39913 21.2224 3.6538 17.2269 2.29383 13.5969C1.27298 10.8721 0.588047 7.09232 3.12162 4.55901L4.56811 3.11225L10.5517 11.9114L9.54259 12.921C8.96848 13.4941 8.78796 14.3421 9.07449 15.0973C9.29025 15.9828 10.2831 17.8207 11.2847 19.1751C12.7587 21.1682 15.434 23.9237 19.8088 25.7336C20.5776 26.0516 21.4542 25.877 22.0427 25.2887L23.0331 24.298L31.8774 30.9198L31.0878 31.7092C28.3719 34.4254 24.4193 33.7594 21.5816 32.7225Z" fill="black"/>
</g>
<defs>
<clipPath id="clip0">
<rect width="35" height="35" fill="white"/>
</clipPath>
</defs>
</svg>
