<svg width="40" height="40" viewBox="0 0 40 40" fill="none" xmlns="http://www.w3.org/2000/svg">
<path d="M29.1724 0H10.8276C4.85718 0 0 4.85718 0 10.8276V29.1727C0 35.1428 4.85718 40 10.8276 40H29.1727C35.1428 40 40 35.1428 40 29.1727V10.8276C40 4.85718 35.1428 0 29.1724 0V0ZM37.655 29.1727C37.655 33.8498 33.8498 37.655 29.1724 37.655H10.8276C6.15021 37.655 2.34497 33.8498 2.34497 29.1727V10.8276C2.34497 6.15021 6.15021 2.34497 10.8276 2.34497H29.1727C33.8498 2.34497 37.655 6.15021 37.655 10.8276V29.1727Z" fill="#202020"/>
<g clip-path="url(#clip0)">
<path d="M30.8296 8.11229C30.6021 7.85765 30.2433 7.78936 29.946 7.91925L5.20069 18.7518C4.92654 18.8719 4.74634 19.1404 4.73966 19.4402C4.73299 19.7395 4.90087 20.0157 5.16988 20.1482L11.0785 23.054L12.5509 31.8873C12.5986 32.2226 12.862 32.4921 13.2049 32.5409C13.4514 32.5763 13.6962 32.4895 13.8657 32.315L18.5303 27.6503L25.1869 32.4053C25.4005 32.5573 25.6757 32.5907 25.918 32.4947C26.1608 32.3987 26.3384 32.1856 26.3898 31.9294L31.0103 8.77558C31.056 8.5461 30.9969 8.30019 30.8296 8.11229ZM11.6884 21.6375L7.33741 19.4977L24.5267 11.973L11.6884 21.6375ZM14.0982 23.9267L13.382 27.5076L12.6094 22.8717L22.0542 15.7618L14.3082 23.534C14.1994 23.6428 14.127 23.7845 14.0982 23.9267ZM14.5669 29.4354L15.375 25.3965L17.2597 26.7427L14.5669 29.4354ZM25.1125 30.4591L16.0393 23.9786L29.0009 10.9739L25.1125 30.4591Z" fill="black"/>
</g>
<defs>
<clipPath id="clip0">
<rect width="26.2857" height="26.2857" fill="white" transform="translate(4.73947 7.05884)"/>
</clipPath>
</defs>
</svg>
