<svg width="40" height="40" viewBox="0 0 40 40" fill="none" xmlns="http://www.w3.org/2000/svg">
<g clip-path="url(#clip0)">
<path d="M34.3185 5.68146C30.6545 2.01752 25.7842 0 20.6024 0C20.6021 0 20.6008 0 20.6005 0C18.0377 0.000305176 15.5401 0.496521 13.1777 1.47522C10.8151 2.45392 8.69837 3.86902 6.88593 5.68146C3.22229 9.34509 1.20478 14.2163 1.20478 19.3976C1.20478 22.4875 1.95032 25.5582 3.36298 28.2941L0.102483 37.6086C-0.127315 38.2657 0.0353439 38.9798 0.527898 39.472C0.872441 39.8169 1.32593 40 1.79224 40C1.99213 40 2.19416 39.9664 2.3913 39.8975L11.7059 36.6373C14.4418 38.0499 17.5125 38.7955 20.6024 38.7955C25.7836 38.7955 30.6545 36.7776 34.3185 33.114C37.9821 29.4504 39.9999 24.5792 39.9999 19.3979C39.9999 14.2163 37.9824 9.34509 34.3185 5.68146ZM32.6595 31.4551C29.439 34.6759 25.1568 36.4493 20.6024 36.4493C17.8161 36.4493 15.0482 35.7602 12.5976 34.4559C12.1533 34.2197 11.6281 34.1791 11.1566 34.3442L2.69404 37.3059L5.65607 28.8434C5.82117 28.3713 5.78028 27.8461 5.54407 27.402C4.24006 24.9521 3.55066 22.1841 3.55066 19.3976C3.55066 14.8431 5.32435 10.5609 8.54487 7.34039C11.7651 4.12018 16.0467 2.3465 20.6008 2.34589H20.6024C25.1571 2.34589 29.439 4.11957 32.6595 7.34039C35.8804 10.5609 37.6541 14.8428 37.6541 19.3976C37.6541 23.9523 35.8804 28.2346 32.6595 31.4551Z" fill="black"/>
<path d="M27.8113 21.1303C26.919 20.238 25.4669 20.238 24.5746 21.1303L23.5986 22.1063C21.1752 20.7858 19.2142 18.8247 17.8934 16.4013L18.8693 15.4254C19.762 14.533 19.762 13.081 18.8693 12.1887L16.2393 9.55865C15.347 8.66632 13.895 8.66632 13.0026 9.55865L10.8988 11.6625C9.69361 12.8677 9.63349 14.9395 10.7294 17.4966C11.6809 19.7167 13.4223 22.1569 15.6326 24.3673C17.843 26.5777 20.2832 28.319 22.5034 29.2706C23.7183 29.7912 24.8233 30.0509 25.7782 30.0509C26.8332 30.0509 27.7048 29.7338 28.3374 29.1012L30.4413 26.997V26.9973C30.8737 26.5649 31.1118 25.9902 31.1118 25.379C31.1118 24.7674 30.8737 24.1927 30.4413 23.7606L27.8113 21.1303ZM26.6785 27.4423C26.3345 27.7862 25.2768 27.9067 23.4277 27.1145C21.4752 26.2777 19.296 24.7128 17.2916 22.7084C15.2872 20.704 13.7225 18.525 12.8858 16.5725C12.0932 14.7234 12.2138 13.6654 12.5577 13.3215L14.6213 11.2579L17.1701 13.807L15.9485 15.0289C15.3961 15.5813 15.2628 16.419 15.6171 17.1136C17.2232 20.263 19.7369 22.7767 22.8864 24.3829C23.5812 24.7372 24.419 24.6041 24.9713 24.0514L26.1929 22.8298L28.7421 25.379L26.6785 27.4423Z" fill="black"/>
</g>
<defs>
<clipPath id="clip0">
<rect width="40" height="40" fill="white"/>
</clipPath>
</defs>
</svg>
