<?xml version="1.0" standalone="no"?>
<!DOCTYPE svg PUBLIC "-//W3C//DTD SVG 20010904//EN"
 "http://www.w3.org/TR/2001/REC-SVG-20010904/DTD/svg10.dtd">
<svg version="1.0" xmlns="http://www.w3.org/2000/svg"
 width="144.000000pt" height="144.000000pt" viewBox="0 0 144.000000 144.000000"
 preserveAspectRatio="xMidYMid meet">
<metadata>
Created by potrace 1.14, written by Peter Selinger 2001-2017
</metadata>
<g transform="translate(0.000000,144.000000) scale(0.100000,-0.100000)"
fill="#000000" stroke="none">
<path d="M187 1433 c-4 -3 -7 -325 -7 -715 l0 -708 123 0 c82 0 127 4 135 12
9 9 12 114 12 410 0 219 3 398 8 398 4 0 42 -89 86 -198 93 -233 104 -252 151
-252 66 0 83 14 124 102 20 46 59 138 86 206 27 67 52 122 57 122 4 0 8 -173
8 -383 0 -359 1 -385 18 -400 15 -14 41 -17 140 -17 66 0 123 4 127 9 3 6 5
322 5 703 0 638 -1 694 -17 706 -11 8 -56 12 -135 12 -81 0 -121 -4 -129 -12
-6 -7 -66 -123 -134 -258 -68 -135 -127 -245 -131 -245 -9 0 -59 97 -184 355
-82 170 -69 160 -214 160 -67 0 -126 -3 -129 -7z"/>
</g>
</svg>
